<svg version="1" xmlns="http://www.w3.org/2000/svg" width="1365.333" height="1365.333" viewBox="0 0 1024.000000 1024.000000"><path d="M629 84.2c-1.9 1.1-5.7 3.3-8.3 4.9-2.7 1.6-5.7 2.9-6.9 2.9-4.5 0-8.7 3.1-11.3 8.5-1.4 2.9-2.7 6.1-2.7 7.1-.1 1.1 1.3 5 3 8.7 1.8 3.8 3.2 7.7 3.2 8.7 0 1.9-1.7 2.4-12.5 3.4-8 .8-16.9 1.8-18.6 2.1-.8.2-5.3.6-10 1-7.3.6-9.6.3-17.4-1.9-4.9-1.3-10.2-2.7-11.8-3-1.5-.2-3.5-.7-4.5-1-5.1-1.5-11.9-1.9-33.2-2-28.3-.2-36.1-1.6-49.9-9.2-5.5-3.1-7.4-3.6-12.5-3.5-10.2.2-11.8.6-20.6 5.2-7.9 4.1-8.5 4.6-8.4 7.4 0 1.6.2 3.4.3 4 .7 2.3 0 4.5-2.4 7.3-2.2 2.6-2.5 3.9-2.5 10.7 0 7.1.4 8.5 4.1 16.3 4 8 4.1 8.7 3.4 14.6-1 8.3-1.1 14.6-.3 17.6 1.1 3.9 6.8 9.2 9.2 8.6 1.2-.3 4.8-.7 8.1-1.1 3.3-.3 8-.8 10.5-1.1 7.5-.9 17-1.6 26.5-1.9 9-.3 10.6-.7 39.2-10.1 2.3-.7 7.3-1.3 11.1-1.3l6.8.1 6.2 10.2c4.2 6.9 6.2 11.3 6.2 13.4 0 2.3 2.1 6.4 7.5 14.5 4.1 6.2 8.5 13.8 9.9 16.9l2.5 5.6-4 6.1c-2.2 3.4-4.7 6.5-5.6 6.8-.9.3-3.7.1-6.3-.6-4.6-1.2-5.1-1.1-11.6 2.2-7.5 3.7-14.6 4.5-19.4 2.2-2.3-1.1-19-1.2-24.5-.2-1.1.2-3.1.1-4.5-.3-1.4-.5-5-1.5-8.1-2.4l-5.5-1.7-9.2 3.5c-10.6 4.1-22.8 5.2-26 2.4-2.3-2.1-10.9-1.7-16.1.7-4.7 2.1-9.5 8.8-10.5 14.7-.9 5.2 1.8 10.3 7 13.2 3.8 2.1 5.5 2.4 16.5 2.4h12.4l2.9 5.3c2.7 5 5.5 7.7 15.1 14.6 3.9 2.9 6.4 3.3 22 4 11.7.5 13.5.3 18.3-1.6 6.9-2.7 7.5-2.7 13 1.1 4.6 3.2 4.9 3.3 15.7 3.3h11l1-3.3c1.1-3.7 3.4-4.2 7-1.4 2.5 2 5.4 2 16.8.1 5.9-.9 7.1-1.5 8.6-4 .9-1.5 4-4.6 6.7-6.8 3.6-2.8 5.4-5.2 6.4-8.2 1.5-4.4 7.7-11.1 13.1-14.1 2.8-1.5 3.5-1.5 8.1-.1 4.9 1.4 5.1 1.4 7.4-.8 2-1.9 3.5-2.3 8.2-2.2 7.6 0 27 6.8 31.2 10.8 1.7 1.6 3.1 2.7 3.1 2.4.1-.2.3-7.4.4-15.9.2-14.8.4-15.8 3.3-22.8 6.7-15.8 14.5-21.1 31.7-21.7 6.7-.3 12.5.1 17.7 1.2 6.5 1.4 8.2 1.5 11.6.4 2.9-1 7.7-1.2 18.3-.7 7.9.4 15.2.9 16.2 1.2.9.3 1.7.2 1.7-.1 0-.4-2.5-5.6-5.5-11.5-5-9.9-12.1-21-18.1-28.3-1.3-1.5-3.1-4.5-4-6.5-1.8-4-23.1-26.2-25.1-26.2-.6 0-1.4-1.3-1.8-2.8-.7-3.6-5.5-7.2-10.3-7.9-3.8-.6-10.2-5.6-10.2-8 0-1.4-1.9-3.6-6.4-7.1-2.7-2-2.9-2.7-2.8-8.5 0-3.4.5-7.4 1.1-8.9 1.3-3.6.6-13.1-1.6-19.7-1.4-4.3-3-6.4-8.1-11-9.3-8.1-11.3-9-20.7-9-6.2.1-8.8.5-11.5 2.1zm-195.4 43.2c1.2.6 4.3 2.6 6.9 4.4 3.8 2.8 5.8 3.5 11.3 3.9 7.4.5 10.4 2.2 8.3 4.7-1.5 1.8-24.5 9.6-28.3 9.6-2.2 0-2.9-.7-3.9-3.8-1.3-3.9-4.4-10-6-11.7-1.5-1.5-1-5.7.8-7.7s6.6-1.7 10.9.6zM585 166.9c4.4 2.2 8.7 3.8 9.4 3.5 1.8-.7 6.9 5.9 9 11.7l1.8 4.6-3.3 7.6-3.2 7.7h-4.6c-5.7-.1-7.2-1.1-11.2-8.6-4.8-8.8-10.8-17.2-16.1-22.4-2.8-2.7-4.8-5.5-4.8-6.8 0-2.1.4-2.1 7.4-1.8 6.2.4 8.8 1.1 15.6 4.5z"/><path d="M433 137.7c.1.5.6 1.7 1.3 2.9 1.1 1.9 1.5 2 4.1.9l3-1.3-3.2-.7c-1.8-.3-3.2-1.1-3.2-1.6s-.4-.9-1-.9c-.5 0-1 .3-1 .7z"/><path d="M420.2 102c-5.5 1.6-21.6 9.1-31.7 14.8-2.7 1.6-10.4 5.9-17 9.6-27.6 15.5-56.8 41.4-65.2 58-3 5.9-11.8 15.4-18.1 19.6-3.5 2.3-5.7 3-9.3 3-5.5 0-8.2 2.5-9.4 8.7-1.1 5.8-4.1 10.9-8 13.3-4.5 2.8-6.4 2.1-6-2.2.2-1.8-.2-3.6-.8-4-.6-.4-1.2-5.2-1.4-12-.1-6.2-.8-12.2-1.4-13.3-1.2-2.4-3.5-4.1-32.4-24.7-12.1-8.6-22.4-16.1-23-16.5-.5-.4-2.7-1.9-4.8-3.3-2.7-1.8-4.7-4.3-6.6-8.5-1.5-3.3-4.3-7.7-6.2-9.8-3.3-3.7-3.4-4-3.4-13.2 0-5.2-.4-9.7-.8-10.1-.3-.4-1.3-.1-2.2.6-1 .9-1.5 3.1-1.5 7.5 0 7.5-.6 9.5-3 9.5-1.4 0-2.2-1.6-3.6-6.8-2-7.7-4-12.2-5.5-12.2-2.1 0-2.1 3.4 0 10.5 2.3 7.9 2.7 13.5 1.1 13.5-1.2 0-5-3.8-8.9-9-1.4-1.9-4-5-5.8-6.9-2.7-3-3.4-3.3-4.7-2.2-1.5 1.3-1.5 1.6.2 4.5 1 1.7 4.4 6.4 7.6 10.5 9 11.8 6.4 14.4-5.6 5.6-8-5.8-10.8-6.7-10.8-3.6 0 1.1 3.6 4.5 9.7 9.2 10.8 8.2 17.2 14.3 17.4 16.5.2 1.8.2 4.1 0 5.6 0 .7-2.8 3.5-6.1 6.1-4.3 3.5-6 5.6-6 7.3 0 3.7 2.8 3 11.3-2.6 15.6-10.1 16.7-10.2 25.7-2.3 7.7 6.6 8.3 7.3 16.8 18.3 6.5 8.4 20.1 25 21.3 26 2.9 2.4 3.9 10.9 1.5 12.9-1.4 1.1-1.4 3-.2 26.3l.4 7.7-3.7.3-3.6.3.3 8.1c.3 7.5 0 8.9-3.8 18.4-6.3 15.7-6 20.7 2.4 41 7 16.8 7.5 18.6 8.2 29.2.6 10 .1 12.1-3.8 16.5-1.1 1.1-2.1 3.6-2.2 5.5-.2 1.8-.4 3.5-.5 3.8 0 .3-2.6 1.9-5.7 3.5-6.3 3.3-11.4 8.5-11.4 11.7 0 2.5 5.7 14.4 8.3 17.2.9 1.1 1.7 2.5 1.8 3 .1.6.2 2 .3 3.1.1 1.5 1.3 2.3 4.9 3.2 6.9 1.7 9.4 3.7 10.8 8.4 1.3 4.2 3.2 5.8 6.3 5.3 3.5-.5 6.6 1.4 6.6 4 0 3.6 3.2 4.9 10.5 4.3 5.1-.4 8.4-1.5 18.2-6.6 21.5-11.1 26.5-17.7 26.7-35.1.1-10.4-.6-12.2-8.6-20.8-6.8-7.4-6.9-8.8-.8-16.2 5.4-6.7 11.7-16.1 14-21.1 1.5-3.3 2-6.6 2-13.1 0-7.8.2-8.9 2.6-11.7 2.5-3.1 3.2-6.2 4.9-22 .4-3.9 1.2-5.1 5.5-8.9 3.9-3.4 5.1-5.2 5.6-8.3.8-4.8 2.1-6 5.4-4.6 1.4.5 4.4 1.2 6.7 1.4 4.1.4 4.5.2 12-7.1 9.8-9.3 12-11.1 27.8-22.4 4.5-3.1 13-9.5 19-14.1 12.4-9.6 15.7-11.5 18.5-10.6 2.2.7 5.9 5.8 11 15 1.8 3.3 4.1 7.3 5 9 1.9 3.5 7.8 5.9 12.5 5.2 1.7-.3 7.4-2.3 12.6-4.6 5.3-2.3 10.7-4.1 12-4.1 1.3 0 6 1.2 10.4 2.6 6.4 2 10.1 2.5 18.8 2.6 5.9 0 11-.2 11.3-.5.7-.7.6-28.1-.1-32.2-2-11.4-2.6-14-3.5-17.6-.6-2.1-1.4-3.9-1.7-3.9-.4 0-4.3 1.1-8.7 2.4-10.2 3.1-14 3.7-32.1 5.1-12.8 1-17.9 1.5-28.1 3.2-13.3 2.1-16.4 1.4-22.4-4.6-6.1-6.1-7.1-9.8-6.7-23.3.4-10.7-.1-13.2-4.7-22.8-1.8-3.8-2.1-6.3-2.1-15.7 0-10 .2-11.4 2.3-14.2 1.7-2.4 2.2-4.2 2-7.8-.3-7.7.5-8.7 10-13.6 10.1-5.2 13.4-6.3 23.4-8.2l7.3-1.3-5.8.1c-3.2.1-8.4.9-11.5 1.7zM675.8 247c-1.4 1.1-4.9 6.1-7.8 11.2l-5.2 9.3-.1 20.5c0 17.3-.3 20.7-1.6 22.1-3.2 3.2-5.1 3.1-7.1-.4-2.1-3.6-10.9-10.7-13.2-10.7-.8 0-4.2-1.4-7.5-3-8.3-4.2-15.2-5.4-17.8-3.2-1.1.9-2.2 2-2.5 2.3-1 1.3-5.6 1.3-10.3 0-4.7-1.4-4.8-1.3-7.8 1.5-1.6 1.5-3.6 5.1-4.5 7.8-1.2 3.8-2.7 5.9-5.8 8.3-9.4 7.4-12.8 11.9-14 18.8-.3 1.6-1.2 5.3-1.9 8.2l-1.4 5.2 2.9 2.1c3.7 2.7 6.1 1.9 13.2-4.5 2.7-2.4 6.3-4.7 8-5.1 1.7-.3 4.1-1.5 5.3-2.6 3-2.8 13.1-2.7 17.9.1 3.1 1.9 3.7 1.9 7.6.5 5.4-1.9 9.2-1.1 14.3 3.1 2.2 1.8 5.1 3.6 6.5 4 3.8 1.2 5 2.5 5 5.6 0 2.7-.3 2.9-3.6 2.9-2.5 0-4.8-.9-7.3-2.9-2-1.6-4.3-3-5.1-3.1-3.5-.5-6.7.2-8.9 2.1-2.1 1.7-2.4 3-2.7 9.6-.3 6.9-.6 8-3.4 10.8-3.2 3.3-3.2 3.4-1.4 15.5.6 4.5 3.6 11 5 11 1.5 0 2.4-3.3 1.3-5.2-.6-1 .2-3.3 2.4-6.9 3.9-6.5 9.3-9.9 14-9 1.8.4 5 .2 7.2-.5 2.6-.7 4.9-.8 6.4-.2 1.6.6 4.2.5 7.3-.3 2.6-.7 5.1-1 5.4-.6.7.7.7 12.9 0 16.2-.3 1.1-.5 3.7-.5 5.7-.1 2.5-.6 3.8-1.4 3.8-3.2 0-4.2 8.2-1.8 14.2 1.2 3.1 1.5 3.2 5.7 1.8 3.5-1.1 7.7-1.8 12.2-1.9 1.8-.1 3.1-.5 2.8-1-.3-.4-.8-2.8-1.1-5.2-.3-2.4-1.3-6-2.2-7.9-2.5-5.1-3-30.7-.8-36.3 5.1-12.8 15.2-19.6 31.8-21.1 6.8-.7 14 .9 18 3.8 6.8 5.1 10.7 10.1 12.9 16.8 1.2 3.8 2.5 6.8 2.8 6.8.3 0 1.7-1.4 3-3.1 1.9-2.6 2.3-4.7 2.6-11.5.1-4.6.8-10 1.3-12.1.6-2.1 1.1-5.7 1.1-7.9 0-3.6.4-4.3 2.8-5.3 1.6-.6 4.1-.8 6.2-.3 1.9.5 6.3.7 9.7.4 5.8-.3 6.4-.2 7.2 2 1.3 3.5.5 9.9-2.8 20.6-1.6 5.3-3.2 11-3.6 12.7-1.9 7.7-2.3 45.6-.5 48.5.3.5 3 1.2 6 1.5 3 .4 5.7.8 6.1 1.1.8.5 1.5-2.1 2.4-9.1.4-2.8.9-6.1 1.2-7.5.3-1.4.7-8.3.9-15.4.3-11.1.7-13.9 3-19.5 1.4-3.6 2.8-8.5 3.1-11 .4-3.2 2-6.4 6-11.9 2.9-4.2 5.6-8.7 5.9-10.1.2-1.4 1.1-4.9 2-7.8.8-2.8 1.3-6.3 1-7.7-.3-1.4.2-3 1-3.7 1.2-1 2.1-.8 4.5 1l3 2.3 3.9-2.6c4.8-3.2 8.6-7.2 10.1-10.7.6-1.6 2-2.9 3.1-3.1 1.7-.3 3-2 6-8 2.1-4.5-.3-11.5-7-19.6-6.1-7.6-16.8-10-21-4.8-.9 1.2-3.9 3.9-6.6 6.1-4.3 3.5-5.4 3.9-10.5 4-6 .1-4.8.8-16.9-10.4-4.6-4.2-16.5-12.7-21.2-15.1-1.9-.9-6.4-2-10-2.4-18.3-1.7-22.9-1.8-26.5-.6-3.7 1.2-6 1.3-15 .5-2.7-.3-9.8-.7-15.6-1-9.5-.4-10.9-.3-13.1 1.5z"/><path d="M387.6 255c-12.3 8.4-15.5 11.1-29.2 23.9-6.6 6.2-7.3 7.2-8.4 12.7-1.8 8.3-2 18.4-.4 21.6 2.6 5.2 1.3 18.6-1.9 18.9-8.1 1-7.5 1.3-17.8-10.4-3.2-3.6-11.6-9.3-12.5-8.5-.2.3-.9 3.1-1.5 6.4-.6 3.2-1.9 6.8-2.9 7.9-2.6 2.8-3.8 8.7-4 18.9l-.1 8.9-8.5 11.8-8.6 11.8 6.1 9.8c3.4 5.3 6.1 10.4 6.2 11.3 0 .8.1 3.7.1 6.5.1 4.6-.2 6.6-1.8 13.5-.4 1.4-.8 3.9-1.1 5.7-.8 5-10.1 15.1-16.8 18.4-1.1.5-4 2.3-6.5 3.9-10.2 6.6-16.7 9.9-21 10.5-9.1 1.2-9.4 1.4-12.8 7-2.4 4-4.6 6.2-8.6 8.5-4.7 2.7-14.8 12.6-35.6 35-1.8 1.9-8.8 9.3-15.5 16.5-6.8 7.1-14.1 15.3-16.2 18.1-2.1 2.7-9.2 12.1-15.8 20.8l-12 15.7-7 2.1c-7.3 2.2-9.8 3.5-9 4.8.3.4-.2 1.3-1.1 2.1-3.3 2.7-3.6 4.7-1 6.1 1.4.7 2.4 1.7 2.3 2.3-.4 1.7 6.9 4.1 13.6 4.5 1.8.1.4 1.9-2 2.5-2.7.6-2.7.7-.9 2.1 1.3.9 4.5 1.4 8.6 1.4 6.5 0 6.6 0 14-6.1 4.1-3.3 8-6.8 8.7-7.7 4.1-5.3 23.5-30.9 24.1-31.8.4-.6 12.3-10.8 26.5-22.7 24.1-20.2 26-21.5 28.3-20.5 2.2 1 2.4 1.7 2.4 8v6.9l-7.9 11.7-7.8 11.7 12.4 9.5 12.5 9.4 6.4.1c3.5 0 6.7.5 7.3 1 .5.6 1.9 4.1 3.2 8 2.2 6.9 10.3 20 11.8 19.1.4-.3 3.4-4.8 6.6-10.1 5.5-9.2 6.1-9.8 12.5-13 4.6-2.3 7.7-3.3 9.6-3 8.1 1.3 9.9 1.7 10.4 2.4.3.3 2.3 2.1 4.6 3.8 4 3.2 4 3.2 3.9 9.7-.2 5.7-.8 7.4-4.9 14.7-4.3 7.6-6.6 15.9-4.4 15.9.5 0 3.8-.7 7.3-1.6 6.1-1.5 6.7-1.5 10.7.1 3.4 1.5 7.4 1.9 19.6 2 15 .1 15.2 0 13.3-1.8-1.7-1.7-3.7-2.2-12.4-2.6-1.1-.1-3.2-1.5-4.8-3.2-2.7-2.9-2.9-3.6-2.9-11.3 0-4.4.7-11 1.6-14.6.9-3.6 1.7-7.3 1.9-8.3.2-1 .7-2.6 1-3.6 1-3.2 11.4-11.1 18.2-14 5.7-2.4 8.3-2.8 16.6-2.9l9.7-.2 5.3-5c2.8-2.8 8.2-6.7 12-8.7 6.5-3.6 6.7-3.8 6.7-7.7 0-2.9-.9-5.1-3.2-8.2-1.8-2.4-3.6-4.4-3.9-4.4-.4 0-1.9 1.6-3.3 3.5-2.4 3.1-3.3 3.5-7 3.5-7 0-23.6-8.4-31.4-15.9-9.8-9.4-10.6-9.9-15.7-9.6-3.9.3-4.7 0-6.5-2.5-3.3-4.6-2.7-12.2 1.6-22.2 2-4.5 4.2-9.7 4.9-11.3.7-1.7 3.2-7.5 5.6-13 3.5-8.2 4.3-11.2 4.4-16.6l.1-6.7-6.1-.5c-10.2-.9-16.6-3.7-24.7-10.8-4-3.5-7.5-6.6-7.8-6.9-.3-.3-4.4-3.7-9.1-7.7l-8.5-7.2-.1-5.2c-.2-5.5-2.1-8.5-7.5-11.7-3.8-2.2-3.9-8.1-.3-12.8 2.3-3 2.9-3.2 7.2-3 2.7.1 6.9 1.2 9.5 2.3 2.5 1.2 6.8 2.4 9.5 2.8 2.6.3 6.4.8 8.3 1.1 1.9.2 4.9.6 6.5.9 1.7.2 5 .7 7.5 1l4.6.6 6.3-7.9 6.4-8 6 .4c8.3.6 11.7 1.6 17.2 5.4 4.2 2.9 5.1 3.1 9.5 2.5 6.7-.9 9.5-3.4 11.4-10 1.3-4.2 2.6-6.2 6-8.9 2.4-2.1 5.4-3.6 6.9-3.6 5.8 0 8.6-3.6 8.2-10.5-.1-2.9.7-5.8 3.2-10.3 1.8-3.5 3.3-6.7 3.3-7.2 0-1.1-8.7-4.6-13.5-5.5-6.6-1.1-12.2-4.4-14-8.2-1.5-3.1-2-3.4-5.5-3.1-5 .2-12.5-4.9-18.1-12.3-3.9-5.3-4-5.4-3.3-11.9.4-3.6.9-7.2 1.3-8 1.5-3.9 10.1-13.1 14.9-15.9 2.8-1.8 5.2-3.5 5.2-3.8 0-.7-6.9-7.2-7.9-7.4-4.6-1-6.9 0-18.5 8.1z"/><path d="M428.4 306.1c-.6 1 2.4 2.6 6.1 3.3 2.6.5 2.6.4 1.1-1.3-1.9-2.1-6.4-3.3-7.2-2zM19.1 327.9c-1.2 1.6-4.1 3.7-6.5 4.6-4.1 1.6-4.3 1.8-2.9 3.5 1.2 1.4 3.1 1.8 8.7 1.8 12.9.1 12.6 0 12.6 2.2 0 3-4 4.5-8.9 3.2-3.4-.8-5.1-.6-9.8 1.1-11.1 4-8.8 6.2 7.2 7.2 6.2.3 7.1.7 7.8 3.4.4 1.7-.4 2.1-5.9 3.2-6.1 1.2-8 2.8-5.2 4.5.6.4 3.8.8 7.2 1 3.4.1 8.5.3 11.4.5 2.9.1 9.4 1.2 14.4 2.4 9.1 2.2 9.7 2.2 25 0 2.1-.3 7-2 11-3.7 6.8-2.8 8-3 18.3-2.9 22.9.4 48.8.2 70.4-.4 22.1-.6 22.4-.6 24.7 1.6 1.3 1.2 3.3 4.2 4.5 6.6 2.3 4.7 3 5 7.4 2.4 3-1.7 3-1.9 2.9-10.2 0-7.5-.5-9.5-4.3-18.7-6.8-16.6-5.7-15.2-11-14.7-20.5 1.7-29.6 2-44.6 1.5-4.4-.1-10.2.3-13 1-2.7.6-5.7 1.3-6.6 1.5-.9.2-6.4 1.5-12.3 2.9-9.1 2.2-13.1 2.6-25.4 2.6-14.4 0-14.9-.1-24.2-3.6-9.9-3.7-11.3-4.1-17-4.9-1.9-.3-4.5-.7-5.6-.9-1.2-.2-8-.7-15.2-1l-13.1-.6-2 2.9zM705.7 349.1c-10.6 1.7-15.9 6.3-19.3 16.7-1.4 4.6-1.5 6.1-.4 11.2 1 4.7 1 6.3 0 7.4-1.5 1.9-.5 6.7 2.1 9.7 1 1.2 1.9 2.8 1.9 3.4 0 .7.7 1.8 1.5 2.5s1.5 2.1 1.5 3.1.6 2.2 1.4 2.6c.8.4 1.7 2 2 3.5.2 1.4.9 3.5 1.5 4.6.6 1.1.7 2.2.4 2.6-.3.3.1.6 1 .6 2 0 2.3 3.5.4 4.3-.7.2-3.6.1-6.4-.3-5-.8-9-.7-19.8.6-13.2 1.5-16.3 2.2-20.7 4.7-2.1 1.1-3.8 2.4-3.8 2.7 0 1.7-7.8 10.5-13.4 15-5.1 4.2-6.8 5-10.2 5-7.4 0-11.6-6.8-5.6-9.1 1.5-.6 3.6-1.9 4.7-2.9s3-2.1 4.1-2.4c5-1.5 2.1-18.9-3.3-20.2-4-1.1-14.6 4.4-18.5 9.4-1.8 2.4-5 6.4-7.2 8.8l-3.8 4.4.5 15.2c.3 8.4.7 16.3 1 17.4.3 1.2.8 3.8 1.1 5.8.3 2 1.5 4.6 2.6 5.8 1.7 1.9 2.7 2 10.4 1.6 7.1-.5 8.8-.3 11.2 1.3 3.3 2.1 13.8 5.4 20.4 6.4 8.3 1.2 17.8 4.6 20.3 7.4 3.5 3.7 9.2 14.6 11.1 21.3 2 7 2 10.8 0 15.6-.8 2-1.7 6.4-2 9.7-.5 8.3-.9 9.6-4.8 16.2-1.9 3.2-3.7 7.1-3.9 8.6-.1 1.5-1 3.5-1.8 4.5-.9.9-5.4 6.2-10.2 11.6-8.2 9.2-10.7 13.2-25.2 39.1-8 14.3-10.2 19.1-9.9 21.9.4 3.7-3.7 11.1-8.3 15.3-3.5 3.1-3.6 3.2-2 5.7 2.3 3.5 1.7 6-2.5 10.4-3.9 4.1-4.1 5.6-.8 10.3 1.9 2.6 2.2 3.9 1.7 8.2-.3 2.9-1.7 7.4-3.1 10.1-1.5 2.7-2.6 6.2-2.6 7.8 0 4.6-3.8 11.2-8.9 15.6-4.3 3.7-5.2 5.2-7.5 12.3-1.4 4.4-2.6 8.4-2.6 8.9 0 2-7.6 16.8-10.6 20.5-2.9 3.6-3.2 4.5-2.8 9.6.2 3.1.8 6.7 1.2 8 1.4 3.7.1 5.8-5.7 8.9-5.4 3-7.1 3.2-20.1 3-3.7-.1-4.9.4-6.7 2.6-4.3 5.5-.7 6.8 18.7 6.8 12.6 0 34.8-1.1 38.5-1.8 1.1-.3 2.5-.5 3-.5.6-.1 2.6-1.6 4.5-3.4 3.3-3 3.5-3.6 3.5-9.2-.1-5.6.4-7.1 7.3-20.5 4.1-8 7.8-15 8.2-15.5.9-1.4 9.7-26.1 11-31.2 1.4-5.6 3.4-6.6 8-4.3 5.4 2.8 13.9 4 19 2.9 5-1.1 13.1-7.3 17.6-13.3 1.6-2.1 4.5-4.5 6.4-5.3 4.9-2.1 9.8-5.9 11.4-9.1.8-1.5 1.4-5.4 1.4-8.7 0-13.8-.3-12.9 5.7-17.4 3-2.3 5.5-4.6 5.5-5.2 0-.5-1.3-2.3-3-3.9-3.7-3.6-3.7-4.8-.4-7.5 2.3-1.8 2.7-3.1 3.1-9 .8-11.3 1.6-14 4.1-14.3 1.2-.2 2.2.1 2.2.7 0 2.4 2.8.9 4-2.2 4.6-12.5 9.3-16 22-16.2 6.7-.1 8-.4 12-3.2 11.4-7.8 25.2-26.8 26.5-36.5 1.8-13 .6-21.9-3.8-28-2.2-2.9-2.5-8.1-.7-10.3 1.3-1.6 2.7-6.3 3.6-11.9.3-2.2.7-4.3.9-4.6.2-.3.6-3 1-6 .3-3 .8-6.9 1-8.5.2-1.7.7-6.8 1.1-11.5 1-13.5.6-12.5 5.2-12.6 6.4-.2 21.6-1.8 36.5-4 11.7-1.6 13.5-.9 17 6.5 1.2 2.5 4.9 8 8.2 12.1 5.9 7.3 10.7 14.6 13.2 20.2.9 2 .9 3.4 0 5.7-.9 2.5-.8 3.3.5 4.8 1 1 2.1 3 2.7 4.3 1 2.4 1 2.4 1.6.4.7-2.3 6.1-5.1 8.8-4.6 2.8.6 2.2 5.7-.9 8.1-1.5 1.2-3.5 2.1-4.4 2.1-1.8 0-3.8 1.8-3.9 3.5 0 .5 1 2 2.1 3.2 1.8 2 3.2 2.3 9 2.3 5.6 0 6.8.3 6.8 1.6 0 2.7 5.9-4.7 6.1-7.6.2-4.6-.3-6.5-2.7-9.7-1.3-1.7-2.4-3.8-2.4-4.6 0-.8-.9-2.2-2-3.2s-2-2.9-2-4.2c0-4.4-6.3-18.7-13.5-30.8-4-6.6-8.3-14.5-9.7-17.7-2.6-5.7-5.5-8.2-8.6-7.5-2.2.5-6.3-1.6-12.3-6.2-2.6-2-6.9-5.2-9.6-7.1-2.6-1.9-9.7-7.6-15.8-12.6-10.2-8.5-17.3-13.1-21.4-13.9-.9-.1-4.3-.6-7.6-1-3.2-.3-6.2-.8-6.5-1-.3-.1-3.6-.6-7.5-1-3.8-.4-7.2-.8-7.6-1-.3-.2-1.6-.6-3-.8-2.8-.6-19.6-4.6-22.1-5.3-1.4-.4-1.6-1.6-1.2-8.5.2-4.5.9-10 1.5-12.2 1.8-6.8 1.2-20.4-1.4-29.1-2-6.9-11.2-14.3-18.7-15-1.4-.2-4.6.1-7.3.5zM377.3 381.3c-3.6 1.3-5.4 2.8-9.6 7.5-3.2 3.7-7.1 4.2-13.3 1.6-4.3-1.8-5.4-2-13.8-2.9-6.7-.7-15.4-2.8-18.7-4.5-2.2-1.2-2.2-1.2.2 2 5.2 6.9 6.8 9.9 5.9 10.5-1.7 1-1.1 5.4.8 6.4 1 .5 3.3 3.1 5.1 5.8 1.8 2.6 5.2 6.3 7.4 8 2.3 1.8 6.1 5 8.4 7.1 4.5 4 12 6.7 16.4 5.8 10.5-2.1 13.3-2.6 14.4-2.6 3.3 0 14.8 22 13.9 26.5-.3 1.1-.5 4.6-.6 7.8-.2 7 1.8 9.7 7.5 9.9 2.2.1 3.7.6 3.7 1.4 0 .7-2.6 3.4-5.7 6.1-3.2 2.6-6.6 5.7-7.6 6.8-1 1.1-4 4.2-6.5 7-8.2 8.7-8.6 12.8-2 18.3 1.8 1.4 5.1 4.4 7.3 6.6 2.2 2.1 7.3 5.4 11.4 7.3 7.7 3.5 7.6 3.5 10.1-.8 2.3-4.1 17-5.3 17-1.4 0 .7 1.8 3.6 4 6.4 2.5 3.1 4 6.1 4 7.8 0 4.3 1.3 5.7 3.2 3.6 3-3.4 4.1-6.8 4-12 0-9.1 4.4-9.4 12.9-.7 5.8 5.9 7 5.8 6.4-.8-.3-3.7-1.3-6.3-3.5-9.5-1.7-2.4-3.2-5.6-3.2-7.1-.1-1.6-1-4-2.2-5.5l-2.1-2.6-4.8 3c-2.6 1.6-6.2 3.3-8 3.6-1.8.3-4.5 1.2-6 1.8-3.9 1.6-13.7-1.8-13.7-4.6 0-1.1 3.8-5.6 8.6-10.2 4.7-4.5 9.2-9.4 10-10.9 2-3.9 1.4-19.1-.9-21.6-.9-1-1.7-2.5-1.7-3.4 0-.8-2.9-4.4-6.5-8.1-4.8-4.9-6.3-7.1-6-8.8.5-2.7-5.3-18.4-10.2-27.6-1.9-3.7-5.6-8.9-8.1-11.5-3.7-3.9-5.2-4.8-8.6-5-3.8-.3-4.1-.6-4.6-3.5-.5-3-9.2-14.4-10.8-14.2-.4 0-2.1.6-3.9 1.2zM344.1 397c5.3 3.1 7.6 3.9 11.3 3.8 3.8 0 5 .4 6.9 2.6 1.2 1.4 3.5 2.7 5 2.8 8.6.7 6 11.2-3 12.1-7.7.7-24.4-8.8-30.7-17.5-6.2-8.5-.8-10.5 10.5-3.8z"/><path d="M585.7 501.6c-.1.2-4.1.6-8.7.9-4.7.3-10.3.8-12.5 1-2.2.2-7.6.7-12 1.1-5.8.5-10.1 1.6-15.7 4-4.2 1.9-8.1 3.4-8.6 3.4-.6 0-1.2.3-1.4.7-.1.5-2.6 2.7-5.5 5.1-2.9 2.4-6.2 5.9-7.3 7.8-1.5 2.3-2.9 3.4-4.6 3.4-1.3 0-2.4-.5-2.4-1 0-.6-1.2-1.5-2.6-2-2.3-.9-3.2-.5-7.9 3.5-5.2 4.4-17.5 10.1-24 11.1-22.1 3.5-41 12.2-60.6 28.1-7.1 5.7-9 6.1-16.4 4.2-7.2-1.9-10.7-1.6-16.5 1.3-8.9 4.4-11.6 7.4-13.1 14.3-.7 3.3-1.4 6.7-1.6 7.5-.2.8-.6 4.3-.9 7.7-.4 5.4-.2 6.3 1.7 7.6 1.7 1.3 2.6 1.3 5.2.2 3.9-1.5 4.7-1.2 9 2.8 1.8 1.8 4.7 4 6.6 5 1.8.9 3.5 2.6 3.8 3.7.5 2 3.8 2.8 4.5 1.1.8-2.4 5.8-1.9 9.6.9 3.9 2.8 4 2.9 3.1 7.2-1.5 8.2-11.7 30.4-21.8 47.7-4.4 7.4-4.5 7 3.4 15.5l7.4 7.8 7.2-9.9c4-5.4 9.7-13.1 12.7-17.2 4.6-6.2 7.4-12.4 8.7-19 .2-.9 1.3-4.3 2.5-7.6 4.3-11.7 5.8-17.1 7-25.8l1.3-8.7h18.8l23.7-12.1c13-6.7 24-12.5 24.5-12.8.4-.4-.6-2.5-2.2-4.7-2.5-3.4-2.9-4.6-2.4-8.2.5-3.8 1.1-4.6 4.5-6.3 5-2.6 8.8-1.8 12.6 2.5l2.8 3.2 6.7-3.1c6.2-2.9 7.4-3.1 16-2.9 5 .1 12.1 1 15.7 1.9 3.6 1 8.8 1.7 11.5 1.8 5.8 0 32-1.4 34.4-1.8.9-.2 1.9-.4 2.2-.4.4-.1 3.3-2.2 6.4-4.9 4.9-4 7.4-5.2 16.3-7.7 9.6-2.7 10.6-3.3 11.3-5.7.4-1.5 3.7-6.1 7.4-10.2 7.8-8.6 10.8-9.9 15.4-6.7l2.9 2.1 1.2-6.8c1.2-6.3 1.1-7.4-.9-13.5-2.5-7.5-6.6-13.6-10.4-15.6-2.3-1.2-3.1-1.2-5.3-.1-2.8 1.5-6.8 1.7-24.4.7-14.5-.9-30.8-1.8-34.9-2.1-1.7-.1-3.3-.1-3.4 0zM467.4 511.2c2.5 2.8 3.7 5.7 5 11.8l1.7 8 4-2.5c2.1-1.4 6.5-4.2 9.6-6.2 3.2-2 7.5-4.2 9.8-4.8l4-1.2-5.7-1.7c-3.1-.9-8.7-3-12.4-4.6-5.5-2.5-7.8-3-12.9-2.8l-6.3.2 3.2 3.8zM451.3 534.5c-.8 2.1.1 2.8 2.6 2 1.8-.5 1.9-.8.7-2.1-1.9-1.8-2.5-1.8-3.3.1z"/><path d="M649.2 553.9c-1.9 2-3.6 5-3.9 6.7-.5 3-.8 3.2-8.6 5-10.3 2.3-19.8 6.9-26.2 12.5-2.7 2.5-6.8 5-9 5.8-2.2.7-5 2.2-6.2 3.3-4.4 4.1-21 9.1-27.4 8.3-5.4-.7-5.7-.9-6.4-4.8-.4-1.8-1.9-4.8-3.5-6.6-2.5-2.8-3.6-3.3-7.7-3.4-2.7 0-5.8.5-6.9 1.1-3.6 1.9-6 7.2-5.9 12.4.1 2.7 0 4.8-.2 4.8-1.4 0-7.4-5-8.7-7.2-1.1-1.8-3.6-3.4-7.4-4.8-3.1-1.1-7.7-3.5-10.2-5.3l-4.5-3.2 2.5 3.5c9.3 13.3 13.2 17.9 15.8 18.8 2.1.7 3.3 2.1 4.1 4.5 1.3 3.8 5.6 7.6 11.2 10 1.9.8 4.7 3.1 6.2 5.1 1.8 2.3 5.1 4.7 9.2 6.5 9.5 4.3 15.5 8.8 15.5 11.5 0 2-.4 2.2-3.9 1.9-3-.2-4.4.3-6.5 2.2-1.4 1.3-2.6 3.1-2.6 4 0 .9-.9 1.5-2.5 1.5-2.5 0-3.2-.2-9.2-3.4-4.3-2.2-8.2-1.4-11.5 2.6-3.3 3.9-4.4 7.3-3 9.1 1.1 1.4 2.1 5.7 2.4 11 .1 2.7 1.2 5 3.5 7.6 2.7 3.2 3.3 4.9 3.7 9.7.2 3.3.5 6.2.5 6.6.1.5 3 .8 6.5.8 3.6 0 6.7.3 6.9.7.3.5.8 2.5 1.1 4.5.8 4.9 5.1 16.2 8.1 21.5 1.9 3.1 3.6 4.6 6.9 5.8 5.6 2.2 8 1.6 13.3-3.2 3.7-3.4 4.2-4.4 4.8-9.8.4-3.8 1.6-7.4 3.1-9.7 3-4.6 3-7.1.2-11.1-3.5-4.9-3.2-10.2 1-16l3.5-4.8-2.2-1.5c-2.6-1.9-1.9-3.4 5-11.4 2.6-3 5.4-7.5 6.2-9.9 1.3-4 1.3-4.8-.5-9.4-1.1-2.8-3.7-7.6-5.9-10.8-3.9-5.6-7.3-14.1-6.1-15.3.3-.4-.4-1.3-1.6-2.2-1.6-1.1-2-2-1.3-3.2 1.8-3.4 23.4-20.8 29.4-23.7 3.4-1.7 11.5-6.5 17.9-10.8 11.2-7.5 11.7-8 12.3-12 .4-2.3 1.2-5 1.7-6 1.8-3.5.3-3.4-3 .2zm-78.7 123.2c1.9.7 3.5 1.8 3.5 2.5 0 .6 1.6 3.5 3.5 6.3 3.5 5 3.5 5.1 1.9 9-.8 2.2-1.7 5.7-1.9 7.8-.1 2.1-.3 4.4-.4 5-.2 1.9-3.6 1.5-5.5-.6-.9-1-1.9-3.1-2.2-4.7-.9-5.8-1.6-7.9-3.1-9.7-.9-.9-1.7-3.7-1.8-6.2 0-2.4-.8-5.2-1.6-6.2-.9-1-1.7-3.6-1.8-5.7l-.3-3.9 3.1 2.6c1.7 1.4 4.7 3.1 6.6 3.8zM313 588.7c-4.7 1.3-9.1 3.9-11.1 6.7-1.3 1.7-5.2 8.7-8.7 15.5-3.4 6.8-7 13-7.8 13.9-3.7 3.6 2.7 17.7 10.1 22 2.8 1.7 17.1 23.5 25.8 39.4 14.1 25.7 17.3 30.6 24.3 37.8 5.3 5.4 8.2 9.5 10.6 14.7 2.8 6 5.7 9.6 18.3 22.8 14.8 15.5 15 15.7 18.1 24.5 4.2 11.9 8.3 18.7 14.8 24.8 5.7 5.4 8.4 6.3 10.6 3.7 2.1-2.6 10-1.3 15.4 2.4 4.1 2.9 5.3 3.2 10.8 3 7.5-.3 18.2-3.4 22.4-6.5 1.6-1.3 5.2-3.3 8-4.5 2.7-1.1 6.3-2.7 8.1-3.5 1.8-.8 6.2-4.8 9.9-8.9 5.5-6.1 7.3-7.5 10.8-8.1 8.3-1.6 15.2.9 19.5 7.1l2.3 3.4 3.1-3.1c1.7-1.7 4.6-3.7 6.3-4.4l3.2-1.3-5.8-14.8c-5-12.9-5.8-16-6.4-24.3-1-12.8-1.5-16.1-3.2-18.4-.8-1.1-1.4-3.1-1.4-4.3 0-1.9.5-2.3 2.9-2.3 3.5 0 5.5-2.2 4.6-5-.7-2.2-4-4.4-5.4-3.6-2.6 1.6-6.4-11.1-4.2-13.8 1.6-1.9 1.8-8.9.5-13.4-1.1-4-1.1-4.5.7-6.3 1.1-1.1 2.5-1.7 3.1-1.3.6.4.3-.4-.8-1.9-1.7-2.2-3.4-3.5-10.4-7.8-1.3-.8-1.2-1.1.4-2.4 1.8-1.4 1.5-1.5-4.1-1.5-3.4 0-6.5-.5-6.8-1-.3-.6-1.7-1-3-1s-2.7-.5-3-1c-.3-.6-1.1-1-1.7-1-.7 0-.6.5.1 1.4 1 1.2.6 1.5-1.8 2.1-1.7.4-4.1.3-5.3-.1-4.5-1.5-5.6-1.2-5.5 1.5.1 1.4-.4 2.6-1 2.7-.7.1-2 .2-2.8.3-.8 0-1.5.9-1.5 1.8s-.7 2.4-1.5 3.3c-1.7 1.9-4 13.2-3.2 15.4.3.8 1.6 1.6 2.9 1.8 3.1.4 3.5 3.4.9 6.2-1.9 2-2 2.5-.7 3.5 1.2 1 2.9 7.7 3 12.2.1 3 3.7 5.9 6.5 5.4 3.6-.6 5.4.8 5.6 4.5.1 2.7-.5 3.6-3.6 5.7-4.6 3-8.9 8.4-8.9 11.1 0 1.1-1 2.6-2.2 3.5-1.3.8-4.1 3.1-6.3 5.1-6 5.6-14.7 9.4-23.1 10.2l-7.1.7-2.1-3.6c-1.1-2-4-4.9-6.3-6.4-5.6-3.7-10.7-9.1-11.1-11.6-.2-1.2-3.3-4.1-7.7-7.1-8-5.5-15.1-13.4-15.1-16.9-.1-2.4-3.6-7-6.2-7.9-.9-.4-6.8-6.6-13.1-13.8-10.9-12.3-11.7-13.6-14.3-21.5-2.3-7.2-4.2-10.4-12.5-21.4-5.9-7.8-10.2-14.6-10.9-17-.6-2.3-1.6-4.1-2.3-4.2-3.3-.3-6.7.6-13.6 3.6-10.4 4.6-10.6 4.4-8.6-11.5.4-3 .8-6.9 1-8.5.2-1.7 2.4-6.5 4.9-10.8 5.1-8.6 5.6-11.5 2.6-14.2-2-1.8-6.8-2.6-10-1.8z"/><path d="M501.5 601.1c-3.3 2.2-14.8 8.4-25.5 13.7-20.1 9.9-21.9 10.4-30.7 8.7-2-.3-2.3.1-2.4 2.8 0 1.8-.2 3.9-.3 4.7-.2.8-.7 4.1-1.1 7.4-.4 3.2-2.1 9.3-3.9 13.5-3.9 9.3-4.7 17.8-3.7 40.1.3 5.2-.1 7.2-1.8 10.2-2.2 3.6-2.2 3.6-.2 5 1.1.8 3.3 1.3 5 1.2 2.9-.2 3-.1 2.7 4-.1 2.8-1.3 5.8-3.3 8.7-1.7 2.5-4.2 7.5-5.5 11.2l-2.3 6.8 7.5 6.9c7.7 7.1 9.7 7.9 14.7 5.8 5-2.1 15.3-9.3 15.9-11 .3-1 2.1-4.1 4.1-6.9l3.5-5.2-2-1.6c-2.2-1.7-5.2-8.8-5.2-12.4 0-1.1-.7-2.9-1.7-3.9-.9-1-1.6-3.2-1.5-5 0-1.8-.5-6.1-1.3-9.6-1.1-5.4-1.1-7.1.2-12 .8-3.1 1.7-6.4 1.8-7.2 1.4-5.9 3-8.9 7.3-13 4.1-4.2 5.3-4.8 8.4-4.6 2.9.2 3.9-.2 4.9-2.1 1-1.9 2-2.3 6.1-2.3 3 0 6.5.8 9.1 2.2 2.3 1.1 6.2 2.2 8.6 2.4 2.4.1 5.8.5 7.6.8l3.2.6v-9.7c.1-9.5.2-11.5 2.3-23.3.5-3 1.2-7 1.5-8.8.7-4.3-2.3-10.2-7.7-15-2.3-2-5-4.5-6-5.5-1-.9-1.9-1.7-2-1.6-.2 0-3 1.8-6.3 4zM533.4 734.8c.2.4.7 5.4 1.1 11.2.6 9.5 1.2 12.1 6.9 27.5 7 18.9 8.5 20.8 13.7 17.8 2.1-1.3 2.6-2.1 2-3.7-.4-1.2-.7-5-.6-8.6 0-4.9.6-7.4 2.3-10.1 1.2-2 2.2-3.9 2.2-4.2 0-.2-1.7-.8-3.7-1.1-8.8-1.6-9-2.2-3.3-9.4 3.1-3.9 4-5.8 4-8.8 0-3.4-.5-4.2-3.6-6.2-3.3-2.1-8.5-3.5-17.7-4.6-2.1-.3-3.6-.2-3.3.2zM504.2 797.7c-.7.2-2.6 1.9-4.3 3.6-2.8 2.8-3 3.5-2.4 7.1.3 2.3.6 5 .5 6.1-.1 1.1-.1 3.7-.2 5.7 0 3.9-.6 4.6-2.5 2.7-1.1-1.1-10.5-1.5-12.2-.4-.6.3-3.2.8-5.8 1.1-2.7.3-9.2 1.7-14.6 3-7.6 1.9-11.9 2.4-19.5 2.2-9.1-.2-10-.5-14.6-3.5-4.9-3.2-5-3.2-6.8-1.3-2.7 2.8-2.2 5.6 1.2 7.7 1.7.9 3.2 2.5 3.5 3.4.7 2.2 5.2 3 6.7 1.2.8-1 2.4-1.2 5.7-.8 19 2.7 23.7 3.2 32.3 3.6 5.4.2 5.9.4 10.9 5.6 5.2 5.3 5.3 5.6 5.4 11.6.1 3.4 0 6.7-.2 7.2-.2.6-2 1-4 .9-5.3-.3-7.2 2.5-7.2 10.1 0 3.3.8 9.3 1.9 13.2 1.8 7 1.9 8.9.6 12.3-.9 2.3 4.9 11 7.3 11 1.2 0 2.2.9 2.6 2.2.4 1.3 1.9 3.4 3.5 4.8 1.5 1.4 4.3 5.4 6.1 9 3.9 7.6 10.5 14.3 12.9 13 .8-.4 1.8-1 2.2-1.2.3-.1 1.7.7 3.1 2 1.9 1.8 2.9 2.1 4.8 1.3 4.6-1.7 5.2-3.4 4.5-11.9-.7-8.5-.8-11.7-.2-14.7.3-1.1.5-2.6.5-3.3.1-.6.7-1.2 1.5-1.2 3.2 0 6.4-4.4 7-9.4.4-3.8 1.3-5.8 3.9-8.5 1.9-2 5.3-6.7 7.6-10.5 3.3-5.5 4.1-7.9 3.9-11.3-.1-5-3.4-8.7-8.5-9.8-4-.8-4.4-2-4.1-13.2l.1-9.1 3.8-2.1c2.8-1.6 6.2-2.3 12.6-2.7 14.7-.8 16.3-1.1 31.1-5.8 9.5-3.1 16-4.6 19.5-4.6 5.2 0 5.4-.1 7.6-4 1.3-2.3 3-4 4-4s2.8-1.1 4-2.4l2.3-2.4-2.4-.8c-5.2-1.7-8.3-1.1-14.1 2.8-3.2 2.2-7.9 4.3-10.4 4.7-2.6.5-16.6 1-31.1 1.1-14.4 0-27.3.4-28.5.9-1.2.4-4.9.7-8.1.6l-6-.1-1.6-7.4c-1.8-8.6-4.3-13.4-7.7-14.9-2.5-1.1-5.9-1.3-8.1-.4zM518 903.1c3.2 3.2 3.3 7.3.3 7.7-2.4.4-6.3 7.2-6.3 11 0 1.2-.4 2.2-.9 2.2-2 0-6.1-4.3-6.1-6.5 0-1.2-.7-2.8-1.5-3.5-1.9-1.6-1.9-3.4-.1-4.9.8-.6 1.2-2.5 1.1-4.4-.2-1.7-.1-3.5.1-3.8.2-.3 2.7-.5 5.6-.5 4.3.1 5.8.6 7.8 2.7z"/><path d="M547.7 844.5c-2.2 1.6-2.6 8.3-.7 9.5 1.9 1.2 2.7.5 3.3-2.7.3-1.6.7-3.8 1-5 .7-2.6-1.2-3.6-3.6-1.8z"/></svg>