<svg xmlns="http://www.w3.org/2000/svg" xmlns:xlink="http://www.w3.org/1999/xlink" width="1024" height="1024" viewBox="0 0 1024 1024"><defs><style>.a{clip-path:url(#c);}.b{fill:none;}.c{fill:url(#a);}</style><linearGradient id="a" x1="0.706" y1="0.047" x2="0.294" y2="0.953" gradientUnits="objectBoundingBox"><stop offset="0" stop-color="#ffeb00"/><stop offset="1" stop-color="#ff9500"/></linearGradient><clipPath id="c"><rect width="1024" height="1024"/></clipPath></defs><g id="b" class="a"><rect class="b" width="1024" height="1024"/><path class="c" d="M-4647.322,1995.549l-3.4-2.761h-2.879l-1.8.865-6.165-5.417-6.3-12-3.238-2.015-2.48-5.052-3.166-.637-3.26-4.811-1.524-3.662,1.524-2.15v-3.56l-3.07-10.572v-9.7l3.07-3.934h6.426v-11.489l-8.578-8.983-15.171-1.068-20.517-2.952-1.939,2.13h-4.1l-.652-3.164L-4727.8,1903l-1.983-2.076.664-3.437,1.319-.823,1.038-1.841,7.623,5.493,16.141.607,14.336-3.437,15.664-2.664h4.425l2.841,1.841,1.361-.758-1.361-3.42,1.361-3.387v-2.72l-1.361-1.771v-4.355l5.145-5.241,4.183-1.035,4.919,1.652,4.161,6.548,1.038,6.923.979,4.673h10.142l5.184-1.286h38.958l10.167-1.216,10.014-6.662h6.629l2.071,1.771-2.071,2.72-4.193,1.45-3.749,6.115h-8.7l-24.734,7.949-20.433,1.034-6.264,4.02v17.318l7.285,1.981,2.917,3.776.733,6.1-2.75,4.928-4.872,8.127-5.208,4.828-.982,8.762-3.064,3.038-3.247.637-1.491,9.165,1.491,4.265v9.613l-2.44,2.19-3.406,1.15Zm-12.168-28.412-1.967,1.333v2.166l1.967,1.379.63,4.319,3.27,3.269h2.1l1.309-6.12,2.6-4.365h3.326v-5.1l-2.255-1.315-1.071-2.684h-9.918Zm34.47-46.246v-6.244l3.2-1.823h1.582v2.575l-1.064,2.394v3.284l-1.914,1.272Zm-97.934-33.157h-6.893l-3.3,2.458-3.385-.783-8.529-8.531-5.586-10.266-4.181-12.753-25.552-26.551-4.946-11.448-12.057-12.225-17.806-31.732-15.482-25.226-4.946-2.528-6.873-10.119v-6.139l2.288-2.231,7.331-14.024,2.2-5.434,4.91-5.952,5.727-2.973,7.027-.581,4.016,2.922.383,3.867-1.666,3.552-5.8,9.422-2,15.918v5.883h3.251l10.215-4.867,6-.6,1.707,2.942.688,4.123,7.723,9.892,8.868,12.249,4.608,13.741,19.25,21.835,2.557.712,3.4,4.5.824,4.317,5.783,7.009,12.87,8.858v3.057l3.629,4.192,8.775,5.884,3.333,6.14h2.855l9.218-1.261,8-3.507,7.752-6.646,4.646-3.569v-2.878l4.318-5.593,5.934-3.927v-4.994l-1.551-1.482h-5.659l-3.042-3.1.437-2.5-.437-3.293-1.03-1.208v-3.744l-2.547-1.49,3.577-4.114v-2.1l-1.03-1.467h-2.547l-1.646-1.391v-3.32l.916-1.74v-2.567l1.085-3.755,2.193-2.805v-2.371l4.95-1.039.731-1.95-2.482-1.783h5.064l1.917,1.184h2.747l2.534-1.184-1.933-3.036,3.554,2.29h2.507l2.6,1.93h9.688l-2.556,1.268v1.985l3.213,1.247,3.54,2.425,3.926,4.368h-2.487l-2.708,3.246,1.27,1.82.974,5.178-.517,5.823-1.727,3.345,1.27,4.29v3.2l2.118,2,4.16.432,1.742,3.051-.355,2.686-2.323,1.01h-3.9v3.987l2.487,3.592,1.977,21.484,9.468,24.5-3.106.814-5.125,3.535-1.8,3.037-4.5-5.982-5.19-3.215-5.863-.717-7.122,1.937-9.543,11.067-6.064,3.264-6.333,2.332-8.079,5.347-10.429,2.935-9.438.564Zm96.259-2.245-7.979-1.086-.65-2.739,3.051-3.967,5.579-.7,2.655,1.156,7.824-.458,9.489-5.118.466-3.913-1.708-4.657v-8.152l4.722-5.2,6.438-13.4.52-3.536,4.144-11.793,8.316-7.643,2.819-6.427.694-6.251,4.243-8.019v-7.666l-3.532-5.207v-2.823l5.958-6.224v-3.553l-2.426-3.461,6.206-5.851,3.7-7.262v-6.04l21.723-38.708,5.258-6.128,12.1-13.475v-3.928l6.747-11.545.727-11.568,2.841-7.056v-5.095l-2.841-9.311-6-11.294-3.255-3.5-8.169-3.1-12.062-2.128-10.854-3.452-4.426-3.11-3.344,1.077h-10.228l-3.018-3.3-2.4-15.867v-19.248l5.416-5.542.7-1.722,5.663-7.042,3.21-1.144,5.9-3.042,3.95-.436,2.229,2.262,1.08,4.276,1.133,1.885,1.008,1.524-1.008,1.279-.375,2.16v3.289l-3.349.79-5.417,4.358-2.843.8V1582l4.157,3.318h6.109l11.167-9.259,5.654-8.021,5.891-3.776,7.471-1.211,18.41-2.087,9.464,1.413,1.713-.98v-2.631l-2.232-.484v-2.316l-1.291-1.453-.73-4.787-2.077-1.1-.968-4.182-1.738-1.239-.741-3.028-2.1-1.685-1.248-3.624V1531.1h1.948l-.7-3.39-1.248-5.459v-3.846l2.606-7.215,3.221-4.741,3.774-2.559,6.112-2,5.621-.6,4.183.6,4.912,2,4.009,3.451,3.345,3.849,1.639,5.9,1.276,9.1v7.567l-2,8.826-.5,12.609,23.434,5.5,24.067,3.316,7.779,3.892,17.521,14.714,19.427,14.057,6.3.439,2.631,2.484,3.758,8.579,5.441,9.167,6.12,9.917,5.134,13.128.542,5.238,2.972,2.549.936,3.88,3.671,4.268v6.841l-5.117,6.017v-2.739H-4357.5l-3.583-2.817v-2.93l.9-1.343,5.315-1.247,2.935-3.757-.472-3.833h-3.115l-5.07,2.174-.493,2.884h-.8l-.733-2.884-2.767-3.148v-2.442l1.389-3.166-2.035-4.5-4.972-8.416-10.078-12.571-3.725-7.583-4.336-2.684-6.728,1.3-28.01,3.322-5.306-.713-1.657,1.284-.565,9.753-1.709,15.56-2.028,11.462-1.71,7.188-2.142,2.812v4.734l3.187,4.3,2.225,6v10.42l-1.146,9.123L-4439,1701.7l-5.6,8.515-7.35,7.625-8.059,5.5h-12.463l-7.063,3.823-3.86,5.882-.7,3.865-1.594,2.547-1.677.545-.819-2h-3.208l-1.361,8.136-.431,7.568-.817,2.726-3.436,2.363V1762l4.253,3.152v2.95l-8.953,6.9v15.515l-1.978,4.2-5.011,4.2-6.161,2.681-5.509,6.952-8.591,6.929-7.379,1.231-7.434-1.231-7.5-3.5-2.776,2.3-1.813,7.274-7.1,19.7-13.648,26.222v10.686l-5.871,5.006-6.432,1.242-20.892,1.086Zm7.461-14.687-3.963-1.342-10.638-28.4-1.439-19.06,13.953,2.055,6.3,4.183v6.545l-6.3,7.656v2.953l9.5,1.781-4.279,6.2V1865.1l1.08,2.84-4.214,2.859Zm-90-32.753-13.487-11.965,3.925-10.8,5.623-8.85v-5.952h-5.623l-2.513-2.283,3.646-6.143-1.133-17.6,1.133-14.406,5.49-13.418,2.039-16.69,9.926,1.021,31.579-15.056,11.9-7.873,9.956,8.863,3.527,7.179-3.527,21.076v16.31l-6.1-1.412h-5.784l-8.251-3.861h-7.367l-2.388,3.861h-6.523l-7.823,8.272-4.4,17.293,2.162,9.016v7.288l2.239,1.51,1.093,6.419,2.335,5.441,3.173,2.67-3.172,3.465-4.548,8.011-9.953,6.652-7.153,1.969v0Zm112.307-22.963h-4.313l-5.859-2.342-3.861-5.611-4.569-12.307-1.6-7.76h-11.22l-.706-10.948-5.312-6.325-1.012-10.363-2.18-3.681,1.084-3.3,5.392-6.079h3.8l8.669,4.332h3.089l1.6-4.332,4.112-2.481h5.769v-3.33l-6.915-4.882-11.505-5.178-4.114-5.729-7.171-3.413-3.812-3.182-3.249-6.683-4.42-1.369-12.625-17.755,7.421,5.695,4.128,1.2,5.5,2.362,3.249,4.636,5.6,3.861v-8.5l3.607-5.713,5.888-1.888,5.332.891,3.926,4.347,2.248,7,6.915.813,6.3-.814,2.115-1.542,8.4-2.3,5.644-4.356,6.468-2.15,7.494-6.778,9.371-5.04,15.628-3.856.762-6.14,2.18-.719,4.788-6.915-2.046,5.805-1.961,8.8-5.5,3.023-13.144,9.228-10.082,4.74-20.333,17.08v2.315l2.754,1.645v4.5l2.083,5.04,6.986,10.275,2.37,7.454-2.37,7.109-9.069,10.628v2.363l2.838,2.468-5.593,7.179v7.27l3.675,4.652v4.07l-3.675,5.232-1.476,10.956-7.491,6.787Zm-15.1-38.924,2.533,2.989v6.547l2.943,3.995,1.58,8.276,2.887,3.172h3.106l.754-8.99,2.4-6.451-5-6.547-1.259-3.61-5.6-2.183-4.981-4.531Zm-150.09,7.032,13.077-23.573,8.881-21.461V1733.1l-6.3-3.935h-3.948l-1.44,2.367h-2.049l-.983-2.367-2.74-3.023-4.285-1.545-4.317-5.114h-3.737l-3.379,1.9-3.572-2.561v-7.378l3.572-15.722,6.49-5.343,8-3.559h3.967l9.145,2.232h3.595l12.827-10.2,13.652-8.7,19.361-7.143,12.2-2.083,13.683-5.3,8.151-7.117h3.377l2.267,3.227h2.818l4.665-6.382,8.746-7.42,14.174-6.059,34.737-3.153,48.227,2.605,6.131-2.605,4.62,3.153,4.391,6.569,3.243,10.835-2.183,10.382-5.451-3.511-4.62,1.831-6.856,7.754-3.671,3.546-1.295,5.147-17.434,4.843-10.3,8.354-32.54,1.829-14.032-3.431h-14.709l-10.42,5.127-4.533-5.127-4.743-1.434-6.692,3.036-1.224,7.418,5.166,6.934-40.86,20.941h-15.6l-2.83,17.337-4.836,13.128-4.093,14.191-20.99,28.607Zm-47.561-51.409v-6.266l8.058-14.335v-10.909l-8.058-6.319-9.952-1.582-11.212,5.661-10.485,17.122-7.319-9.982-4.729-14.257h-11.512l-20.745-15.687,12.989-19.376v-11.373l-4.252-1.9-42.651,35.873-21.749,28.733-12.218,9.99h-10.592l-3.9-2.022,5.966-2.493-7.912-1.481-5.241-1.314v-2.679l-4.084-2.015,4.084-4.9v-2.239l13.153-4.08,27.078-35.305,47.161-49.93,9.357-5.682,5.8-9.116,12-1.682,24.425-15.017,7.1-8.518,3.287-14.6v-10.615l-10.39-16.719,14.616-20.051v-15.867l1.969-5.617,2.47-2.763,2.042-10.739,7.52,4.072,10.919,12.362h7.62l2.214-5.7v-7.75l-2.214-4.2v-10.144l2.214-11.06,19.879-18.534,20.432-14.021h5.613l6.676,6.249-9.119,6.119-8.372,10.243-1.27,12.417,6.47,8.588,8.412,5.957h7.079l2.1,5.4,5.982,2.989,10.447,2.385,5.644,3.19-5.645,10.555v8.435l-3.15,3.979h-5.422l-7.855,6.236-2.1,7.867-3.2,3.874-9.119,1.757-8.372-5.631-7.608-1.792h-7.623l-10.59,13.013-26.355-3.615-8.189-3.732h-7.531l-4.069,5.527v6.03l6.539,4.588,2.042,2.747v8.155l28.273,24.232,12.477,3.447h6.161v10.49l-15.532,36.622v8.981l3.293,4.14h8.5l14.185,13.349,16.843,7.835h6.676l5.3-6.165,5.982,7.432v6.5l-11.285,6.334-9.119,8.59h-15.981l-11.148,4.64-9.31,8.141-3.936,17.011v12.341l3.293,4.838,6.078,1.4h4.841l5,3.34h-25.588l-8.161-3.341-11.4,3.341h0Zm94.976-69.86-1.164-7.68-5.966-7.321v-2.062l-2.5-1.8h-3.921l-6.805,1.8-3.525,5.026-13.162-6.209-2.567-3.2-8.521-7.084-1.714-4.174,1.714-4.235,9.869-10.906,10.671-8.951v-2.393h-5.189l-3.178-2.175-1.084-4.346,1.084-9.707-5.6-13.688-5.512-7.3-4.835.956-9.947,2.058-7.57-2.058-14.8-12.362-4.909-7.455-2.7-1.255-.73-2.957,1.68-3.036-4.918-7.067-2.86-3.213,3.961,1.825,9.172,2.518,12.3,1.261,8.558,3.364,4.765-1.056,5.519-6.708,7.317-2.846,8.81,9.554v4.214l1.22,1.709,5.908-.518,7.254,7.312,6.645,12.622,5.255,13.911v5.092l9.635,9.619,1.179,3.913,2.288,2.24.532,14.322-2.3,4.782-14.444,13.646v2.868l9.191,3.629,3.553-1.741,6.18-1.272,8.36-5.138,3.328,4.522v4.341l4.792,6.557,1.381,5.266-.543,5.3-10.363-9.382-3.443-1.183-2.111,2.3v8.262l-1.4,3.4-3.835,4.277h0Zm-89.208-120.539,4.7,6.78,9.091,6.806,10.964,4.962,7.438-1.225,3.592-5.707-2.862-3.038-5.132-1.029-3.036-3.937h-8.256l-10.37-6.329h-6.129Zm99.857,117.293h0l.923-4.489,3.245,2.835-4.167,1.656Zm19.426-5.593h0l-3-13.191-5.375-6.461h10.982l10.494,4.708,10.013,3.091-6.268,1.2-16.842,10.66Zm-193.28-67c-2.1-.684-2.039-1.407-1.958-2.408a3.842,3.842,0,0,0-1.369-3.544,2.7,2.7,0,0,0-2.041-.679c-.457,0-.935.047-1.439.1l-.044,0c-.481.048-1.026.1-1.562.1a3.934,3.934,0,0,1-3.23-1.318,7.421,7.421,0,0,1-.995-2.67c-.511-1.984-1.147-4.452-2.971-5.5a32.963,32.963,0,0,0-6.851-2.236,22.937,22.937,0,0,1-3.694-1.107c-.555-.3-.247-1.084.049-1.839a3.492,3.492,0,0,0,.335-1.194,2.384,2.384,0,0,0-.769-1.616c-.078-.09-.154-.18-.232-.275a1.618,1.618,0,0,0-.568-.481.908.908,0,0,1-.455-.494.919.919,0,0,1-.049-.4,1.731,1.731,0,0,0-.165-.869.745.745,0,0,0-.493-.313,1.265,1.265,0,0,1-.825-.6,1.7,1.7,0,0,1-.113-.641,2.819,2.819,0,0,0-.253-1.172c-.559-1.009-1.206-2.091-1.83-3.136-1.609-2.7-3.127-5.238-3.127-6.38,0-5.579,4.546-8.157,9.809-11.142,1.472-.835,2.994-1.7,4.5-2.674.816-.527.685-1.913.546-3.378-.153-1.624-.312-3.3.8-3.967a7.556,7.556,0,0,0,3.076-3.219c.215-.362.458-.769.758-1.221,1.051-1.575.265-9.873-.205-14.831-.1-1.053-.193-2.049-.252-2.787-.162-2.086-3-8.882-5.737-15.454-2.65-6.353-5.152-12.353-5.455-14.481-.554-3.883-1.156-9.446,0-12.919.443-1.331,1.5-3.939,2.622-6.7l.026-.064c1.648-4.06,3.515-8.66,3.74-9.99a29.911,29.911,0,0,0-.451-5.812v-.013c-.4-3.1-.806-6.311-.281-6.86s2.428-.655,3.938-.655c1.289,0,2.432.083,2.48.087l-.006-.109c-.27-4.6-1.59-27.593-1.1-28.053a4.629,4.629,0,0,1,1.875-.731,32.957,32.957,0,0,0-.214-6.631c-.16-1.524-3-4.787-6.586-8.918-1.585-1.825-3.381-3.891-5.079-5.974-2.539-3.116-5.407-6.918-7.936-10.274l-.021-.028c-2.656-3.522-4.951-6.566-6.157-7.879-4.62-5.03-13.2-11.8-13.288-11.866a17.256,17.256,0,0,0-2.813-.233,11.523,11.523,0,0,0-2.434.233c-1.483.321-6.7,3.767-10.884,6.536l-.017.01c-2.613,1.728-4.87,3.22-5.557,3.512a5.579,5.579,0,0,1-2.088.553,1.806,1.806,0,0,1-1.518-.759c-.957-1.221.052-3.013.531-3.726a32.1,32.1,0,0,1,4.386-3.614c2.235-1.687,4.542-3.432,4.778-4.02l.043-.107c.443-1.1.995-2.468-.043-6.372-.771-2.9-11.057-10.6-17.2-15.211l-.009-.006c-2.4-1.8-4.137-3.1-4.4-3.441-.979-1.25-1.167-2.194-.591-2.97a1.669,1.669,0,0,1,1.407-.6,3.924,3.924,0,0,1,1.569.365c.444.2,2.218,1.55,4.275,3.113l.009.006c2.929,2.228,6.249,4.755,7.249,5.141a6.3,6.3,0,0,0,2.072.546,1.757,1.757,0,0,0,1.277-.546c.828-.782.394-1.9-.211-3.176-.251-.528-2.146-2.993-4.341-5.845l-.009-.011-.014-.018c-2.943-3.825-6.279-8.16-6.669-9.156-.625-1.6-.485-2.547.484-3.271a1.873,1.873,0,0,1,1.132-.4,2.517,2.517,0,0,1,1.869,1.07c.278.336,1.212,1.51,2.295,2.869,3.07,3.857,8.209,10.313,8.906,10.918a2.963,2.963,0,0,0,1.776.834c.616,0,1.067-.4,1.337-1.189.392-1.142-1.125-6.321-2.344-10.481a42.514,42.514,0,0,1-1.437-5.521c-.023-1.514.522-2.436,1.578-2.667a1.45,1.45,0,0,1,.308-.034c.7,0,1.267.56,1.9,1.876.285.595.995,3.178,1.746,5.914l0,.015a66.6,66.6,0,0,0,2.276,7.5,1.8,1.8,0,0,0,1.546.68,2.569,2.569,0,0,0,1.852-.68c.319-.394.378-3.4.434-6.306v-.013a40.255,40.255,0,0,1,.307-5.738c.436-1.573.913-2.214,1.648-2.214a1.427,1.427,0,0,1,.2.015c.847.12,1.386.363,1.726,2.707a56.073,56.073,0,0,1-.035,6.473v.01a43.168,43.168,0,0,0,.036,7.071,7.261,7.261,0,0,0,1.938,2.421,23.939,23.939,0,0,1,4.07,4.943,44.582,44.582,0,0,1,3.774,8.561c.492.345,49.243,34.6,51.819,37.306,2.344,2.458,2.361,2.562,2.571,3.841l.008.047c.023.135.048.286.078.455.3,1.686.476,17.293.5,19.067v.034l1.677-.508c0,.024-.074,3.708,0,4.9.073,1.208.181,2.017.982,2.228a1.9,1.9,0,0,0,.479.059,5.553,5.553,0,0,0,2.89-1.161c.2-.139.429-.28.694-.444a11.067,11.067,0,0,0,5.213-6.055,42.177,42.177,0,0,0,1.379-5.062v-.005c.486-2.155.907-4.015,1.792-4.992a7.35,7.35,0,0,1,3.795-2.455,2.706,2.706,0,0,1,.729-.079c.4,0,.881.045,1.392.093l.185.016c.6.056,1.244.109,1.923.109a9.377,9.377,0,0,0,1.692-.14c2.255-.413,8.23-4.882,14.326-11.648a21.516,21.516,0,0,0,4.417-6.382,37.306,37.306,0,0,1,4.858-7.774c6.45-8.5,12.819-14.573,27.265-26,11-8.705,13.594-10.131,21.288-14.368,2.2-1.214,4.945-2.723,8.422-4.7,15.7-8.947,22.792-12.669,31.354-15.737a38.661,38.661,0,0,1,12.146-1.882c2.377,0,4.038.222,4.042.422,0,.127-.647.225-1.784.271a49.489,49.489,0,0,0-13.763,2.408,81.263,81.263,0,0,0-9.008,4.072,80.642,80.642,0,0,0-7.166,3.939c-.115.093-.222.177-.325.257-.88.692-1.322,1.039-1.818,3.231a16.9,16.9,0,0,0,.009,4.626,12.551,12.551,0,0,1-.009,3.96,3.383,3.383,0,0,1-1.128,1.575,5.713,5.713,0,0,0-1.923,3.259c-.845,3.376-1.378,14.309-.41,17.66a62.143,62.143,0,0,0,2.554,6.324,49.373,49.373,0,0,1,3.05,7.932c.3,1.582.149,5.734,0,9.75v.013c-.144,3.939-.292,8.011,0,9.5a17.378,17.378,0,0,0,4.545,8.883c3.36,3.862,6.6,4.92,7.52,5.152a13.062,13.062,0,0,0,3.572.442,43.793,43.793,0,0,0,9.561-1.4c4.06-.961,11.988-1.551,20.381-2.175,9.381-.7,19.082-1.42,23.37-2.715,7.858-2.374,12.7-4.056,12.906-4.126l0,.013a112.471,112.471,0,0,1,4.179,21.131,163.878,163.878,0,0,1,0,24.178h-.017c-.5.038-3.205.229-7.467.229-2.735,0-5.572-.078-8.43-.23a33.306,33.306,0,0,1-11.769-2.763,15.367,15.367,0,0,0-5.5-1.477h-.079c-2.915,0-8.321,2.412-13.092,4.54l0,0a61.269,61.269,0,0,1-6.479,2.651,7.931,7.931,0,0,1-2.147.266,24.528,24.528,0,0,1-8.424-2.065c-.108-.2-10.881-20.066-12.571-21.4a5.649,5.649,0,0,0-3.487-1.175,6.707,6.707,0,0,0-3.224.853,78.905,78.905,0,0,0-6.37,4.792l-.019.014c-5.589,4.4-14.034,11.048-24.369,18.114a140.343,140.343,0,0,0-19.72,16.528c-3.3,3.222-5.294,5.165-6.62,5.211-.232.008-.464.011-.687.011a18.887,18.887,0,0,1-6.119-1.012c-.431-.141-.834-.285-1.191-.413a7.715,7.715,0,0,0-2.271-.6,1.349,1.349,0,0,0-.878.287c-.7.558-.779,1.448-.877,2.575a9.509,9.509,0,0,1-1.62,5.08,20.418,20.418,0,0,1-5.231,4.849,9.7,9.7,0,0,0-2.118,1.764c-.466.672-.919,5.147-1.4,9.884v.009c-.461,4.561-.937,9.276-1.429,10.29a4.424,4.424,0,0,1-1.98,1.943,3.379,3.379,0,0,0-1.612,1.575c-.36.865-.4,3.671-.453,6.922a88.081,88.081,0,0,1-.413,8.84c-.349,2.74-3.229,7.553-5.583,11.107a101.151,101.151,0,0,1-6.463,8.8l-.137.154a31.662,31.662,0,0,0-3.546,4.564c-1.29,2.161-1.569,3.874-.829,5.092a27.59,27.59,0,0,0,3.008,3.475,63.809,63.809,0,0,1,5.748,6.72c2.063,2.921,3.065,5.42,3.065,7.635a56.927,56.927,0,0,1-1.127,13.042,20.871,20.871,0,0,1-4.508,9.095c-4.451,5.2-12.223,9.41-25.93,15.822a20.682,20.682,0,0,1-7.8,1.384A16.313,16.313,0,0,1-4877.909,1586.087Zm347.411-34.815V1545.1l1.608-3.089,2.02-.642v-3.618l1.324-11.69-.554-5.59h-3.265l-4.723,1.445-5-1.445-7.01,1.993-4.951-1.087-4.147,1.964-4.2,4.35-2.968,6.049,1.1,2.563v2.2l-2.2.922-3.448-6.606-1.38-13,5.268-5.432-.439-8.075,1.1-4.705,3.93-3.251h5.752l6.586,5.161h5.966v-3.964l-.889-2.039-5.631-1.865-6.032-5.108-5.271-1.247-7.243,2.492-5.632-3.359h-9.815l-4.288,3.359-5.026,1.327-10.015,8.494h-3.4l-3.648-3.213,3.648-15.528,3.4-5.273,10.542-8.542,2.86-8.5,4.086-4.111h3.261l3.474,1.673h4.92l5.632-4.16,8.1,1.426,8.791,4.593,3.883.578,7.5,6.038,3.131,4.844h2.906l3.428-3.632-1-19.262,1-7.8-.558-6.1,9.8-17.313,4.862-2.169,4.662.932,3.431-.932h4.292l5.539,2.169h3l1.8-1.236,1.552,1.236h5.979l5.394-2.169,24.384,2.169,5.822,3.052,10.774,7.457,13.379,12.062h9.134l6.512-4.859,5.013-5.254,5.942-.744,6.767,2.736,5.876,7.241,3.479,6.992v4.928l-1.528,1.962-.685,2.6-2.225,3.447h-2.931l-1.986,4.8-4.335,4.428-6.542,4.122-1.832-2.453-2.557-1.124-2.457,1.124.471,6.37-2.129,5-.768,5.805-9.418,13.172-.484,5.007-1.814,6.121-3.178,7.784.5,13.218-3.188,23.084-11.259-1.289-1.323-20.321,1.323-6.1-.432-8.589,1.691-9.126,2.434-7.674,2.8-9.368v-7.965l-1.575-1.382-9.542.536-7.808-1.3-3.2,2.142v5.574l-2.056,10.227v10.549l-4.706,6.352-1.92-5.846-1.861-5.51-5.049-6.124-6.161-4.54-7.486-1.97-10.27.741-9.926,3.094-7.262,6-3.781,6.457-1.812,5.071v10.113l1.053,2.531-1.053,2v6.087l1.053,4.1,2.177,4.684.473,4.773,1.167,3.884-9.286.9-7.145,1.766Zm-377.622-29.883h0l-3.008-6.776-4.749-4.6-65.258,2.007-7.671-2.007-12.236.814-13.992,5.379-15.578,1.911-14.65-3.506-20.368-.854-.964-2.93,11.3-2.723-1.813-3.572-16.892-1.773v-2.807l5.737-1.813,4.262-1.946,6.893,1.946,4.118-1.946v-3.615h-16.226l-2.511-3.009,7.726-3.223,2.613-4.316,22.147.908,11.952,2.062,16.279,6.056h24.109l30.11-7.075,16.854,1.019,29.888-2.062,8.827,21.593v13.585l-6.9,3.271Zm256.188-40.78-7.627-5.123h-3.455l-8.1,3.366h-11.829l-14.939-1.9-12.539-9.794-4.677-8.673h-20.313l-7.141-3.779-2.754-5.672.887-6.971,5.156-7.367,6.381-2.981h9.388l1.976,2.193h12.4l15.158-5.981,13.626,3.788,8.161-.874h12.615l3.543,1.953h8.03l12.1-5.971,5,1.91h4.522l7.258-11.108-4.382-9.383-12.4-18.757v-5.479l-10.206-16.631h-11.758l-28.819,9.349h-10.562l-25.129,2.279-10.526,1.552-5.048-5.172-1.861-8.009,1.861-9.141v-5.426l-6.773-13.69v-12.91l4.43-4.962v-3.068l-.854-2.436v-3.692l14.517-7.4,10.163-.81h4.536l12.319,6.715,15.353,3.953h38.15l14.957,2.953,15.606,4.374,40.4-4.374v-2.953l-.937-2.63-4.474-9.4,1.43-5.664,3.98-6.17,3.943-2,4.743-.637,6.492-3.953,7.749-4.053h11.77l5.243,2.369,11.282,10.006,3.042,8.664.553,9.063-1.77,6.427v9.216l6.632,5.2,1.513,4.107,5.4,5.027h4.786l5.64,4.128,1.438,4.4,2.482,1.007,17.708,17.914,2.889,6.291,4.451,5.455,8.724,12.525,8.917,18.105-3-1.029-23.362-1.164-7.722,2.193-7.858-1.658-8.916-1.435-13.092,1.435-8.457,3.568-6.374,7.889-5.3,13.094v25.681l-5.417-5.118-8.644-2.844-10.534-3.8h-8.437l-5.153,3.8-6.644-2.338-4.649,1.322-8.315,7.378-3.014,7.986-7.335,5.683-4.118,5.542-12.358,1.854h-6.172l-2.016-2.455h-3.963l-.766,5.123-6.873.589Zm40.046-130.459,7.259,5.935,1.315,3.156,6.079,7.616,5.765,11.015,3.588,1.887h6.744l5.492-12.9-3-7.616-4.735-5.85h-3.826l-10.028-5.413-6.079-1.324h-8.574Zm-116.822-31.367v3.474l3.839,6.549,2.94,7.686h4.606l19.148-6.52,2.514-2.492-.721-2.418-12.583-.842-9.624-7.169-7.516-1.412h0Zm13.847,150.773-5.8-1.13-3.01-2.446h4.824l3.987,3.574,0,0Zm-2.412-139.158h0l-1.992-5.548,3.162,2.661,4.048,1.183-5.217,1.705Z" transform="translate(5165.176 -1125.376)"/></g></svg>