<svg xmlns="http://www.w3.org/2000/svg" xmlns:xlink="http://www.w3.org/1999/xlink" width="720" height="437" viewBox="0 0 720 437"><defs><style>.a{clip-path:url(#b);}.b{font-size:98px;font-family:Nunito-Black, Nunito;font-weight:800;}.c{fill:#fff;}</style><clipPath id="b"><rect width="720" height="437"/></clipPath></defs><g id="a" class="a"><rect class="c" width="720" height="437"/><text class="b" transform="translate(13 391)"><tspan x="0" y="0">Monki Projects</tspan></text><g transform="translate(232 12)"><path d="M80.081,256c-3.055,0-6.114,0-9.169-.017-2.577-.017-5.154-.047-7.727-.115a112.292,112.292,0,0,1-16.819-1.48,56.68,56.68,0,0,1-15.979-5.265,53.838,53.838,0,0,1-23.505-23.5,56.655,56.655,0,0,1-5.27-15.991A112.226,112.226,0,0,1,.137,192.815q-.1-3.86-.115-7.723Q0,182.082,0,179.074V76.925q0-3.009.021-6.018.019-3.858.115-7.722A112.227,112.227,0,0,1,1.613,46.37a56.636,56.636,0,0,1,5.27-15.987A53.755,53.755,0,0,1,30.388,6.878,56.708,56.708,0,0,1,46.366,1.613,112.409,112.409,0,0,1,63.185.132c2.572-.068,5.15-.1,7.727-.115C73.967,0,77.027,0,80.081,0h95.837c3.059,0,6.119,0,9.174.017,2.577.017,5.15.047,7.727.115a112.441,112.441,0,0,1,16.819,1.48,56.724,56.724,0,0,1,15.979,5.265,53.76,53.76,0,0,1,23.5,23.505,56.636,56.636,0,0,1,5.27,15.987,112.228,112.228,0,0,1,1.476,16.816c.068,2.572.1,5.15.115,7.722.017,3.059.017,6.115.017,9.174v95.837c0,3.059,0,6.115-.017,9.174-.017,2.573-.047,5.15-.115,7.723a112.227,112.227,0,0,1-1.476,16.815,56.655,56.655,0,0,1-5.27,15.991,53.842,53.842,0,0,1-23.5,23.5,56.7,56.7,0,0,1-15.979,5.265,112.323,112.323,0,0,1-16.819,1.48c-2.577.068-5.15.1-7.727.115-3.055.017-6.115.017-9.174.017Z"/><path class="c" d="M106.67,178.887l-.85-.69h-.72l-.449.216-1.541-1.354-1.576-3-.81-.5-.62-1.263-.792-.159-.815-1.2-.381-.916.381-.537v-.89l-.768-2.643v-2.426l.768-.983H100.1v-2.872l-2.144-2.246-3.793-.267-5.129-.738-.485.533H87.528l-.163-.791-.814-.4-.5-.519.166-.859.33-.206.259-.46,1.906,1.373,4.035.152,3.584-.859,3.916-.666h1.106l.71.46.34-.189-.34-.855.34-.847v-.68l-.34-.443v-1.089l1.286-1.31,1.046-.259,1.23.413,1.04,1.637.26,1.731.245,1.168h2.535l1.3-.322h9.739l2.542-.3,2.5-1.666h1.657l.518.443-.518.68-1.048.363-.937,1.529h-2.175l-6.184,1.987-5.108.259-1.566,1.005v4.33l1.821.5.729.944.183,1.526-.688,1.232-1.218,2.032-1.3,1.207-.245,2.191-.766.76-.812.159-.373,2.291.373,1.066v2.4l-.61.548-.852.287Zm-3.042-7.1-.492.333v.542l.492.345.158,1.08.818.817h.526l.327-1.53.651-1.091h.832v-1.274l-.564-.329-.268-.671h-2.48Zm8.617-11.562v-1.561l.8-.456h.4v.644l-.266.6v.821l-.479.318Zm-24.483-8.289H86.038l-.825.614-.846-.2-2.132-2.133-1.4-2.567-1.045-3.188-6.388-6.638-1.236-2.862-3.014-3.056L64.7,123.976l-3.87-6.307-1.236-.632-1.718-2.53v-1.535l.572-.558,1.833-3.506.55-1.358,1.228-1.488,1.432-.743,1.757-.145,1,.731.1.967-.416.888-1.449,2.355-.5,3.979v1.471H64.8l2.554-1.217,1.5-.15.427.735.172,1.031,1.931,2.473,2.217,3.062,1.152,3.435,4.813,5.459.639.178.849,1.125.206,1.079,1.446,1.752,3.218,2.214v.764l.907,1.048,2.194,1.471.833,1.535h.714l2.3-.315,2-.877,1.938-1.661,1.161-.892V137.1l1.079-1.4,1.484-.982v-1.249l-.388-.371H98.729l-.76-.775.109-.625-.109-.823-.258-.3v-.936l-.637-.372.894-1.029v-.524l-.258-.367h-.637L96.662,127v-.83l.229-.435v-.642l.271-.939.548-.7v-.593l1.237-.26.183-.487-.62-.446h1.266l.479.3h.687l.634-.3-.483-.759.889.572h.627l.651.483h2.422l-.639.317v.5l.8.312.885.606.981,1.092h-.622l-.677.811.317.455.244,1.294-.129,1.456-.432.836.317,1.073v.8l.529.5,1.04.108.436.763-.089.671-.581.252h-.976v1l.622.9.494,5.371,2.367,6.124-.776.2-1.281.884-.449.759-1.124-1.5-1.3-.8-1.466-.179-1.781.484-2.386,2.767-1.516.816-1.583.583-2.02,1.337-2.607.734-2.36.141Zm24.065-.561-1.995-.272-.163-.685.763-.992,1.395-.174.664.289,1.956-.115,2.372-1.279.116-.978L116.508,146v-2.038l1.18-1.3,1.609-3.351.13-.884,1.036-2.948,2.079-1.911.7-1.607.173-1.563,1.061-2v-1.916l-.883-1.3v-.706l1.49-1.556v-.888l-.606-.865,1.551-1.463.926-1.816v-1.51l5.431-9.677,1.314-1.532,3.026-3.369v-.982l1.687-2.886.182-2.892.71-1.764V92l-.71-2.328-1.5-2.823-.814-.874-2.042-.775-3.015-.532-2.713-.863-1.107-.777-.836.269h-2.557l-.755-.824-.6-3.967V73.691l1.354-1.385.175-.43,1.416-1.76.8-.286,1.476-.761.988-.109.557.565.27,1.069.283.471.252.381-.252.32-.094.54v.822l-.837.2L127.7,74.414l-.711.2V75.5l1.039.83h1.527l2.792-2.315,1.413-2.005,1.473-.944,1.868-.3,4.6-.522,2.366.353.428-.245v-.658l-.558-.121v-.579l-.323-.363-.182-1.2-.519-.274-.242-1.045-.435-.31-.185-.757-.525-.421-.312-.906v-.941h.487l-.175-.847-.312-1.365V59.6l.652-1.8.805-1.185.944-.64,1.528-.5,1.405-.15,1.046.15,1.228.5,1,.863.836.962.41,1.475.319,2.274v1.892l-.5,2.207-.126,3.152,5.858,1.375,6.017.829,1.945.973,4.38,3.679,4.857,3.514,1.576.11.658.621.939,2.145,1.36,2.292,1.53,2.479,1.284,3.282L181.3,91.4l.743.637.234.97.918,1.067v1.71l-1.279,1.5v-.685h-2.792l-.9-.7v-.733l.225-.336,1.329-.312.734-.939-.118-.958h-.779l-1.267.543-.123.721h-.2l-.183-.721-.692-.787v-.611l.347-.791-.509-1.126-1.243-2.1-2.519-3.143-.931-1.9-1.084-.671-1.682.326-7,.831-1.327-.178-.414.321-.141,2.438-.427,3.89-.507,2.866-.428,1.8-.535.7v1.184l.8,1.075.556,1.5V101.4l-.286,2.281-1.066,1.746-1.4,2.129-1.838,1.906-2.015,1.375h-3.116l-1.766.956-.965,1.47-.174.966-.4.637-.419.136-.2-.5h-.8l-.34,2.034-.108,1.892-.2.682-.859.591v.8l1.063.788v.738l-2.238,1.724v3.879l-.494,1.05-1.253,1.05-1.54.67-1.377,1.738-2.148,1.732-1.845.308-1.859-.308-1.874-.875-.694.575-.453,1.818-1.775,4.924-3.412,6.556v2.672l-1.468,1.251-1.608.31-5.223.272Zm1.865-3.672-.991-.336-2.66-7.1-.36-4.765,3.488.514,1.576,1.046V138.7l-1.576,1.914v.738l2.375.445-1.07,1.55v2.931l.27.71-1.053.715Zm-22.5-8.188L87.82,136.52l.981-2.7,1.406-2.213v-1.488H88.8l-.628-.571.911-1.536-.283-4.4.283-3.6,1.372-3.354.51-4.173,2.482.255,7.895-3.764,2.975-1.968,2.489,2.216.882,1.795-.882,5.269v4.077l-1.525-.353h-1.446l-2.063-.965H99.932l-.6.965H97.7l-1.956,2.068-1.1,4.323.541,2.254v1.822l.56.378.273,1.6.584,1.36.793.668-.793.866-1.137,2-2.488,1.663-1.788.492h0Zm28.077-5.741h-1.078l-1.465-.585-.965-1.4-1.142-3.077-.4-1.94h-2.8l-.176-2.737-1.328-1.581-.253-2.591-.545-.92.271-.825,1.348-1.52h.95l2.167,1.083h.772l.4-1.083,1.028-.62h1.442v-.832l-1.729-1.221-2.876-1.294-1.029-1.432-1.793-.853-.953-.8-.812-1.671-1.1-.342-3.156-4.439,1.855,1.424,1.032.3,1.374.591.812,1.159,1.4.965v-2.124l.9-1.428,1.472-.472,1.333.223.982,1.087.562,1.75,1.729.2,1.575-.2.529-.386,2.1-.575,1.411-1.089,1.617-.537,1.873-1.695,2.343-1.26,3.907-.964.19-1.535.545-.18,1.2-1.729-.512,1.451-.49,2.2-1.374.756-3.286,2.307-2.52,1.185-5.083,4.27v.579l.689.411V110.9l.521,1.26,1.747,2.569.592,1.864-.592,1.777-2.267,2.657v.591l.71.617-1.4,1.795v1.817l.919,1.163v1.017l-.919,1.308-.369,2.739-1.873,1.7Zm-3.776-9.731.633.747v1.637l.736,1,.4,2.069.722.793h.776l.188-2.248.6-1.613-1.249-1.637-.315-.9-1.4-.546-1.245-1.133ZM77.97,125.8,81.24,119.9l2.22-5.365v-1.265l-1.575-.984H80.9l-.36.592h-.512l-.246-.592-.685-.756-1.071-.386-1.079-1.279H76.01l-.845.475-.893-.64v-1.845l.893-3.93,1.623-1.336,2-.89h.992l2.286.558h.9l3.207-2.549,3.413-2.176,4.84-1.786,3.051-.521,3.421-1.324,2.038-1.779h.844l.567.807h.7l1.166-1.6,2.186-1.855,3.544-1.515,8.684-.788,12.057.651,1.533-.651,1.155.788,1.1,1.642.811,2.709-.546,2.6-1.363-.878-1.155.458-1.714,1.938-.918.887-.324,1.287-4.359,1.211-2.575,2.088-8.135.457-3.508-.858h-3.677l-2.605,1.282-1.133-1.282-1.186-.358-1.673.759-.306,1.854,1.292,1.733L93.184,110.73h-3.9l-.707,4.334-1.209,3.282-1.023,3.548L81.1,129.046ZM66.08,112.946v-1.567L68.1,107.8v-2.727l-2.015-1.58-2.488-.4-2.8,1.415-2.621,4.281-1.83-2.5-1.182-3.564H52.278l-5.186-3.922,3.247-4.844V91.12l-1.063-.475L38.613,99.614,33.176,106.8l-3.055,2.5H27.473l-.974-.506,1.491-.623-1.978-.37-1.31-.329v-.67l-1.021-.5,1.021-1.225v-.56l3.288-1.02,6.769-8.826L46.55,82.18l2.339-1.42,1.449-2.279,3-.421,6.106-3.754,1.776-2.129.822-3.651V65.871l-2.6-4.18L63.1,56.679V52.712l.492-1.4.618-.691.511-2.685L66.6,48.95l2.73,3.091h1.905l.554-1.424V48.679l-.554-1.051V45.092l.554-2.765,4.97-4.634,5.108-3.505h1.4l1.669,1.562-2.28,1.53-2.093,2.561-.317,3.1,1.618,2.147,2.1,1.489h1.77l.525,1.351,1.5.747,2.612.6,1.411.8-1.411,2.639v2.109l-.788.995H88.229l-1.964,1.559-.525,1.967-.8.968-2.28.439-2.093-1.408-1.9-.448H76.759l-2.647,3.253-6.589-.9-2.047-.933H63.593l-1.017,1.382V63.2l1.635,1.147.511.687v2.039l7.068,6.058,3.119.862h1.54v2.623l-3.883,9.155v2.245l.823,1.035h2.124l3.546,3.337,4.211,1.959h1.669L86.265,92.8l1.5,1.858v1.625l-2.821,1.583-2.28,2.148h-4l-2.787,1.16-2.328,2.035-.984,4.253v3.085l.823,1.209,1.52.349h1.21l1.25.835h-6.4l-2.04-.835-2.851.835h0ZM89.824,95.481l-.291-1.92-1.491-1.83v-.515l-.624-.451h-.98l-1.7.451-.881,1.257-3.291-1.552-.642-.8-2.13-1.771-.429-1.044.429-1.059,2.467-2.726,2.668-2.238v-.6h-1.3l-.795-.544-.271-1.087.271-2.427-1.4-3.422-1.378-1.824-1.209.239-2.487.514-1.893-.514-3.7-3.091-1.227-1.864-.676-.314-.182-.739.42-.759-1.229-1.767-.715-.8.99.456,2.293.629,3.075.315,2.139.841,1.191-.264,1.38-1.677,1.829-.711,2.2,2.389v1.053l.3.427,1.477-.13,1.814,1.828L85.516,70.6l1.314,3.478v1.273l2.409,2.4.295.978.572.56.133,3.581-.575,1.2-3.611,3.411v.717l2.3.907.888-.435,1.545-.318,2.09-1.285.832,1.13V89.28l1.2,1.639.345,1.316-.136,1.325-2.591-2.346-.861-.3-.528.576v2.065l-.35.851-.959,1.069h0Zm-22.3-30.135L68.7,67.041l2.273,1.7,2.741,1.241,1.859-.306.9-1.427-.716-.76-1.283-.257-.759-.984H71.647l-2.592-1.582H67.522ZM92.487,94.669h0l.231-1.122.811.709-1.042.414Zm4.856-1.4h0l-.751-3.3-1.344-1.615h2.745l2.624,1.177,2.5.773-1.567.3-4.211,2.665ZM49.023,76.522c-.524-.171-.51-.352-.49-.6a.961.961,0,0,0-.342-.886.675.675,0,0,0-.51-.17c-.114,0-.234.012-.36.025H47.31c-.12.012-.257.026-.39.026a.983.983,0,0,1-.808-.329,1.855,1.855,0,0,1-.249-.668,2.106,2.106,0,0,0-.743-1.374,8.241,8.241,0,0,0-1.713-.559,5.734,5.734,0,0,1-.923-.277c-.139-.076-.062-.271.012-.46a.873.873,0,0,0,.084-.3.6.6,0,0,0-.192-.4l-.058-.069a.4.4,0,0,0-.142-.12.227.227,0,0,1-.114-.124.23.23,0,0,1-.012-.1.433.433,0,0,0-.041-.217.186.186,0,0,0-.123-.078.316.316,0,0,1-.206-.151.425.425,0,0,1-.028-.16.7.7,0,0,0-.063-.293c-.14-.252-.3-.523-.458-.784a5.293,5.293,0,0,1-.782-1.595c0-1.395,1.136-2.039,2.452-2.786.368-.209.748-.425,1.126-.669.2-.132.171-.478.137-.845-.038-.406-.078-.825.2-.992a1.889,1.889,0,0,0,.769-.8c.054-.09.114-.192.189-.305.263-.394.066-2.468-.051-3.708-.025-.263-.048-.512-.063-.7a25.068,25.068,0,0,0-1.434-3.863,26.745,26.745,0,0,1-1.364-3.62,8.207,8.207,0,0,1,0-3.23c.111-.333.375-.985.656-1.675l.007-.016a24.149,24.149,0,0,0,.935-2.5,7.478,7.478,0,0,0-.113-1.453v0a4.476,4.476,0,0,1-.07-1.715,1.888,1.888,0,0,1,.985-.164c.322,0,.608.021.62.022l0-.027c-.068-1.151-.4-6.9-.274-7.013a1.157,1.157,0,0,1,.469-.183,8.239,8.239,0,0,0-.053-1.658,7.866,7.866,0,0,0-1.646-2.229c-.4-.456-.845-.973-1.27-1.493-.635-.779-1.352-1.73-1.984-2.568l-.005-.007c-.664-.881-1.238-1.641-1.539-1.97a35.788,35.788,0,0,0-3.322-2.966,4.314,4.314,0,0,0-.7-.058,2.881,2.881,0,0,0-.608.058,18.178,18.178,0,0,0-2.721,1.634l0,0c-.653.432-1.217.805-1.389.878a1.4,1.4,0,0,1-.522.138.451.451,0,0,1-.379-.19c-.239-.305.013-.753.133-.931a8.024,8.024,0,0,1,1.1-.9,6.782,6.782,0,0,0,1.194-1.005l.011-.027a2.145,2.145,0,0,0-.011-1.593c-.193-.724-2.764-2.651-4.3-3.8l0,0c-.6-.45-1.034-.775-1.1-.86-.245-.313-.292-.549-.148-.742a.417.417,0,0,1,.352-.149.981.981,0,0,1,.392.091c.111.05.555.387,1.069.778l0,0a16.173,16.173,0,0,0,1.812,1.285,1.575,1.575,0,0,0,.518.137.439.439,0,0,0,.319-.137c.207-.2.1-.475-.053-.794-.063-.132-.536-.748-1.085-1.461l0,0,0,0a25.2,25.2,0,0,1-1.667-2.289c-.156-.4-.121-.637.121-.818a.468.468,0,0,1,.283-.1.629.629,0,0,1,.467.267c.069.084.3.378.574.717.768.964,2.052,2.578,2.227,2.73a.741.741,0,0,0,.444.209c.154,0,.267-.1.334-.3a10,10,0,0,0-.586-2.62,10.628,10.628,0,0,1-.359-1.38c-.006-.379.13-.609.394-.667a.362.362,0,0,1,.077-.009c.175,0,.317.14.474.469.071.149.249.795.437,1.478v0a16.651,16.651,0,0,0,.569,1.874.451.451,0,0,0,.386.17.642.642,0,0,0,.463-.17,7.007,7.007,0,0,0,.109-1.576v0A10.064,10.064,0,0,1,34.4,6.613c.109-.393.228-.554.412-.554a.357.357,0,0,1,.051,0c.212.03.346.091.431.677a14.018,14.018,0,0,1-.009,1.618v0a10.792,10.792,0,0,0,.009,1.768,1.815,1.815,0,0,0,.484.605A5.985,5.985,0,0,1,36.8,11.97a11.145,11.145,0,0,1,.944,2.14c.123.086,12.311,8.65,12.955,9.326.586.614.59.641.643.96l0,.012.019.114c.076.422.119,4.323.124,4.767V29.3l.419-.127c0,.006-.018.927,0,1.225s.045.5.245.557a.474.474,0,0,0,.12.015,1.388,1.388,0,0,0,.722-.29c.05-.035.107-.07.173-.111a2.767,2.767,0,0,0,1.3-1.514,10.544,10.544,0,0,0,.345-1.265h0a3.013,3.013,0,0,1,.448-1.248,1.838,1.838,0,0,1,.949-.614.677.677,0,0,1,.182-.02c.1,0,.22.011.348.023l.046,0c.15.014.311.027.481.027a2.344,2.344,0,0,0,.423-.035,10.558,10.558,0,0,0,3.581-2.912,5.379,5.379,0,0,0,1.1-1.6,9.326,9.326,0,0,1,1.214-1.944c1.612-2.125,3.2-3.643,6.816-6.5A29.063,29.063,0,0,1,75.729,9.38c.551-.3,1.236-.681,2.106-1.176A48.174,48.174,0,0,1,85.673,4.27,9.665,9.665,0,0,1,88.71,3.8a2.546,2.546,0,0,1,1.01.105c0,.032-.162.056-.446.068a12.372,12.372,0,0,0-3.441.6,28.958,28.958,0,0,0-4.043,2l-.081.064c-.22.173-.33.26-.455.808a4.226,4.226,0,0,0,0,1.157,3.138,3.138,0,0,1,0,.99.846.846,0,0,1-.282.394,1.428,1.428,0,0,0-.481.815,14.432,14.432,0,0,0-.1,4.415,15.536,15.536,0,0,0,.639,1.581,12.343,12.343,0,0,1,.762,1.983,17.148,17.148,0,0,1,0,2.438v0a16.763,16.763,0,0,0,0,2.374,4.344,4.344,0,0,0,1.136,2.221,3.907,3.907,0,0,0,1.88,1.288,3.266,3.266,0,0,0,.893.11,10.948,10.948,0,0,0,2.39-.35,42.98,42.98,0,0,1,5.1-.544,38.123,38.123,0,0,0,5.842-.679c1.965-.593,3.176-1.014,3.227-1.031v0A28.118,28.118,0,0,1,103.3,29.9a40.969,40.969,0,0,1,0,6.045h0c-.125.01-.8.057-1.867.057-.684,0-1.393-.019-2.107-.058a8.327,8.327,0,0,1-2.942-.691A3.842,3.842,0,0,0,95,34.884h-.02a11.279,11.279,0,0,0-3.273,1.135h0a15.317,15.317,0,0,1-1.62.663,1.983,1.983,0,0,1-.537.067,6.132,6.132,0,0,1-2.106-.516c-.027-.05-2.72-5.017-3.143-5.349a1.412,1.412,0,0,0-.872-.294,1.677,1.677,0,0,0-.806.213A19.726,19.726,0,0,0,81.033,32l0,0c-1.4,1.1-3.509,2.762-6.092,4.529a35.086,35.086,0,0,0-4.93,4.132c-.826.805-1.324,1.291-1.655,1.3l-.172,0a4.722,4.722,0,0,1-1.53-.253c-.108-.035-.208-.071-.3-.1a1.929,1.929,0,0,0-.568-.15.337.337,0,0,0-.22.072c-.176.139-.195.362-.219.644a2.377,2.377,0,0,1-.4,1.27,5.1,5.1,0,0,1-1.308,1.212,2.424,2.424,0,0,0-.529.441,13.584,13.584,0,0,0-.349,2.471v0a16.272,16.272,0,0,1-.357,2.573,1.106,1.106,0,0,1-.495.486.845.845,0,0,0-.4.394,8.091,8.091,0,0,0-.113,1.731,22.02,22.02,0,0,1-.1,2.21,9.017,9.017,0,0,1-1.4,2.777,25.288,25.288,0,0,1-1.616,2.2l-.034.039a7.915,7.915,0,0,0-.887,1.141c-.323.54-.392.968-.207,1.273a6.9,6.9,0,0,0,.752.869,15.952,15.952,0,0,1,1.437,1.68,3.438,3.438,0,0,1,.766,1.909,14.232,14.232,0,0,1-.282,3.261,5.218,5.218,0,0,1-1.127,2.274c-1.113,1.3-3.056,2.353-6.483,3.956a5.17,5.17,0,0,1-1.95.346A4.078,4.078,0,0,1,49.023,76.522Zm86.853-8.7V66.274l.4-.772.5-.16v-.9l.331-2.922-.138-1.4h-.816l-1.181.361-1.249-.361-1.753.5-1.238-.272-1.037.491-1.05,1.087-.742,1.512.276.641v.549l-.551.23-.862-1.652-.345-3.249,1.317-1.358-.11-2.019.275-1.176.982-.813h1.438l1.646,1.29h1.491v-.991l-.222-.51-1.408-.466-1.508-1.277-1.318-.312-1.811.623-1.408-.84H123.34l-1.072.84-1.257.332-2.5,2.123h-.849l-.912-.8.912-3.882.849-1.318,2.636-2.135.715-2.125,1.022-1.028h.815l.869.418h1.23l1.408-1.04,2.025.357,2.2,1.148.971.145,1.875,1.51.783,1.211h.727l.857-.908-.251-4.815.251-1.949-.139-1.526,2.45-4.328,1.216-.542,1.165.233.858-.233h1.073l1.385.542h.751l.45-.309.388.309h1.495l1.349-.542,6.1.542,1.456.763,2.693,1.864,3.345,3.015h2.284l1.628-1.215,1.253-1.314,1.485-.186,1.692.684,1.469,1.81.87,1.748v1.232l-.382.491-.171.65-.556.862H171.5l-.5,1.2-1.084,1.107-1.636,1.03-.458-.613-.639-.281-.614.281.118,1.592-.532,1.249-.192,1.451-2.355,3.293-.121,1.252-.454,1.53-.795,1.946.124,3.3-.8,5.771-2.815-.322-.331-5.08.331-1.526-.108-2.147.423-2.282.608-1.918.7-2.342V51.241l-.394-.345-2.385.134-1.952-.324-.8.535v1.393l-.514,2.557v2.637l-1.176,1.588-.48-1.462-.465-1.378-1.262-1.531-1.54-1.135-1.872-.492-2.568.185-2.482.774-1.816,1.5-.945,1.614-.453,1.268v2.528l.263.633-.263.5v1.522l.263,1.024.544,1.171.118,1.193.292.971-2.321.225-1.786.442ZM41.47,60.347h0l-.752-1.694L39.531,57.5l-16.315.5L21.3,57.5l-3.059.2-3.5,1.345-3.894.478-3.663-.876-5.092-.214-.241-.733,2.825-.681-.453-.893L0,55.69v-.7l1.434-.453L2.5,54.049l1.723.486,1.03-.486v-.9H1.2l-.628-.752L2.5,51.587l.653-1.079,5.537.227,2.988.515,4.07,1.514h6.027L29.3,51l4.213.255,7.472-.515,2.207,5.4v3.4l-1.724.818Zm64.047-10.195-1.907-1.281h-.864l-2.024.841H97.765l-3.735-.475L90.9,46.79l-1.169-2.168H84.647l-1.785-.945-.689-1.418.222-1.743,1.289-1.842,1.6-.745h2.347l.494.548h3.1l3.789-1.5,3.407.947,2.04-.218h3.154l.886.488H106.5l3.026-1.493,1.25.478h1.13l1.815-2.777-1.1-2.346-3.1-4.689V26l-2.552-4.158h-2.939l-7.2,2.337H94.193l-6.282.57-2.631.388-1.262-1.293-.465-2,.465-2.285V18.2L82.324,14.78V11.553l1.108-1.241V9.545l-.213-.609V8.013l3.629-1.851,2.541-.2h1.134L93.6,7.638l3.838.988h9.538l3.739.738,3.9,1.094,10.1-1.094V8.626l-.234-.657-1.118-2.351.358-1.416,1-1.542.986-.5L126.892,2l1.623-.988L130.452,0h2.943l1.311.592,2.821,2.5.76,2.166.138,2.266-.443,1.607v2.3l1.658,1.3.378,1.027,1.35,1.257h1.2l1.41,1.032.359,1.1.62.252,4.427,4.479.722,1.573,1.113,1.364,2.181,3.131,2.229,4.526-.75-.257-5.841-.291-1.93.548-1.965-.415-2.229-.359-3.273.359-2.114.892-1.593,1.972L134.608,38.2v6.42l-1.354-1.279-2.161-.711-2.633-.949H126.35l-1.288.949-1.661-.584-1.162.33-2.079,1.844-.754,2-1.834,1.421-1.03,1.385-3.09.464H111.91l-.5-.614h-.991l-.191,1.281-1.718.147Zm10.011-32.615,1.815,1.484.329.789,1.52,1.9,1.441,2.754.9.472h1.686l1.373-3.226-.75-1.9-1.184-1.462H121.7l-2.507-1.353-1.52-.331h-2.144ZM86.323,9.7v.868l.96,1.637.735,1.922h1.151l4.787-1.63.628-.623-.18-.6-3.146-.21L88.853,9.263,86.974,8.91h0Zm3.462,37.693-1.45-.282-.753-.612h1.206l1,.894h0Zm-.6-34.789h0l-.5-1.387.79.665,1.012.3-1.3.426Z" transform="translate(22.794 38.656)"/></g></g></svg>